<?xml version="1.0" encoding="utf-8"?>
<!-- Generator: Adobe Illustrator 23.1.0, SVG Export Plug-In . SVG Version: 6.00 Build 0)  -->
<svg version="1.1" xmlns="http://www.w3.org/2000/svg" xmlns:xlink="http://www.w3.org/1999/xlink" x="0px" y="0px"
	 viewBox="0 0 1080 1080" style="enable-background:new 0 0 1080 1080;" xml:space="preserve">
<style type="text/css">
	.st0{fill:#E6E6E6;}
	.st1{fill:#1FE9FF;}
	.st2{fill:#1CD1E6;}
	.st3{fill:#2B2B26;}
	.st4{fill:#69F1FF;}
	.st5{fill:#66D8E3;}
	.st6{fill:#FFFFFF;}
	.st7{fill:#F5F5F5;}
	.st8{fill:#1A1A18;}
	.st9{fill:#FFFFFF;stroke:#000000;stroke-width:5;stroke-miterlimit:10;}
	.st10{fill:#DECBB6;}
	.st11{fill:#BFA486;}
	.st12{fill:#D6BDA1;}
	.st13{fill:#1FE9FF;stroke:#000000;stroke-width:5;stroke-linecap:round;stroke-linejoin:round;stroke-miterlimit:10;}
	.st14{fill:#DECBB6;stroke:#000000;stroke-width:5;stroke-linecap:round;stroke-linejoin:round;stroke-miterlimit:10;}
	.st15{fill:#F2F2F2;}
	.st16{fill:#171714;}
</style>
<g id="Layer_1_copy">
	<g>
		<path class="st0" d="M102,1117c-11.4,0-22.1-5.2-29.3-14c-6.6-8.2-9.4-18.8-7.8-29.1c0.5-3.6,1-7.1,1.5-10.7
			c0.5-3.5,0.9-7,1.4-10.5c0,0,0.1-0.5,0.1-0.5c1-7.6,1.9-15,2.8-22c0,0,0.5-4.1,0.5-4.1c0.3-2.4,0.6-4.8,0.8-7.2
			c0.4-3.7,0.8-7.3,1.2-10.9c0,0,0-0.3,0-0.4c0.4-3.4,0.7-6.8,1.1-10.2l0.1-0.8c0.8-7.3,1.5-14.8,2.2-22.2c0.3-2.6,0.5-5.1,0.7-7.6
			l0.3-3.6c0.3-3.4,0.6-6.9,1-10.4l0.1-0.7c0.3-3.6,0.6-7.3,1-10.9l0-0.2c0.6-7.2,1.2-14.5,1.8-21.7c0-0.2,0-0.4,0-0.5
			c1.1-13.6,2.2-28,3.4-44.1c0.8-10.6,1.6-21.1,2.3-31.6c0.3-4.3,0.6-8.5,0.9-12.7l1.3-18.6c0.4-5.2,0.8-10.4,1.1-15.6
			c0.5-6.3,0.9-12.5,1.4-18.7c0.2-3.1,0.5-6.2,0.7-9.3l0-0.3c0.2-3,0.4-5.9,0.7-8.9c0.2-3.1,0.5-6.2,0.7-9.2
			c0.3-3.3,0.5-6.6,0.8-9.9c0.5-5.9,1-11.7,1.4-17.5c0.8-9.8,1.6-18.7,2.4-27.2c0.3-3,0.6-6,0.9-9c0.3-3,0.6-6,0.9-9
			c0.6-5.7,1.2-11.7,1.8-17.7c0.6-5.5,1.2-11,1.9-16.5l0.7-5.9l0.3-2.3c0.3-2.4,0.6-4.7,0.9-7.1c0.2-1.8,0.5-3.7,0.7-5.6
			c0.2-1.4,0.4-2.8,0.5-4.2c0,0,0.5-3.6,0.6-4.4c0.1-0.7,0.2-1.3,0.3-2c0.3-2.1,0.6-4.3,0.9-6.4c0.3-1.8,0.5-3.7,0.8-5.6l0.3-1.8
			c0.7-4.8,1.4-9.6,2.3-14.9c0-0.1,0.4-2.3,0.4-2.3c0.3-1.7,0.6-3.4,0.8-5.1c0.4-2.5,0.8-4.9,1.2-7.4c0.4-2.1,0.7-4.2,1.1-6.4
			c0.1-0.5,0.2-1,0.3-1.6l0-0.2c0.3-1.9,0.7-3.7,1-5.6c0.1-0.6,0.2-1.3,0.4-1.9c0.4-2,0.8-4,1.2-6c0.9-4.7,1.9-9.5,2.9-14.3
			c0.5-2.3,1-4.5,1.5-6.8c0.2-1,0.5-2.1,0.7-3.1c1-4.5,2-8.7,2.9-12.7c0.4-1.6,0.8-3.2,1.2-4.9c1-4,1.9-7.5,2.8-10.8
			c0.9-3.6,1.9-7.2,2.9-10.7c0.5-1.7,1-3.4,1.5-5.2c0.5-1.8,1-3.6,1.6-5.4c0.5-1.8,1.1-3.5,1.6-5.3c0,0,0-0.1,0-0.1
			c0.5-1.7,1.1-3.4,1.6-5c1-3.2,2.1-6.6,3.4-10.4c0.6-1.7,1.2-3.4,1.8-5.2c0.6-1.8,1.3-3.6,1.9-5.4c0.5-1.4,1-2.8,1.6-4.2
			c0,0,0.5-1.3,0.5-1.3c0.7-1.8,1.4-3.6,2.1-5.4c0-0.1,0.1-0.2,0.1-0.3c0.7-1.8,1.4-3.6,2.1-5.3c1-2.4,1.9-4.7,2.9-7.1
			c0,0,0-0.1,0.1-0.1c1-2.3,2-4.6,3-6.9c0,0,0-0.1,0.1-0.1c1-2.3,2.1-4.6,3.1-6.8c0.6-1.2,1.1-2.4,1.7-3.6c0,0,0-0.1,0.1-0.1
			c1.1-2.3,2.2-4.5,3.3-6.7c1.1-2.2,2.2-4.4,3.5-6.9c0.8-1.5,1.5-2.9,2.3-4.4c1.2-2.2,2.1-4,3.1-5.7c1.8-3.2,3.7-6.4,5.6-9.7
			c0.7-1.2,1.4-2.3,2.1-3.4c1.3-2.2,2.7-4.3,4-6.3c1.1-1.6,2.1-3.2,3.1-4.7c1-1.5,2.1-3.1,3.1-4.6c0.3-0.4,0.6-0.8,0.9-1.2
			c-5.8-6.6-11.3-14-16.1-22c-25.3-42.7-17.6-87.7,20.5-120.5c0,0,0.1-0.1,0.1-0.1c0.3-0.3,0.6-0.5,1-0.8l0.1-0.1
			c0.4-0.4,0.8-0.7,1.3-1l0.5-0.4c0.7-0.6,1.4-1.1,2.2-1.7l0.2-0.2c0.8-0.6,1.6-1.2,2.4-1.8l0.2-0.2c0.7-0.5,1.5-1.1,2.3-1.6
			l0.3-0.2c0.7-0.5,1.4-1,2.1-1.4c0.2-0.1,0.4-0.3,0.6-0.4c0.7-0.5,1.5-1,2.3-1.4c0.5-0.3,1-0.6,1.4-0.9c0,0,0.7-0.4,1-0.6
			c0.6-0.3,1.2-0.7,1.7-1c0,0,0.6-0.3,0.6-0.3c0.4-0.2,0.7-0.4,1.1-0.6c0.3-0.2,0.6-0.3,1-0.5c12.5-6.3,25.6-9.5,38.9-9.5
			c18.7,0,35.3,6.1,49.8,15.3c-0.8-6.5-1.7-12.8-3-17.6c-0.2-0.8-0.5-1.8-0.9-2.9c-4.4-12.4-15.1-29.2-18.5-34.2
			c-7-10.2-8.6-23.1-4.2-34.7c4.4-11.5,14.2-20.2,26.2-23.1c3.2-0.8,79.1-19,199.2-19c26.7,0,53.8,0.9,80.7,2.7
			c12.3,0.8,24.6,1.8,36.7,3c15.7,1.5,31.6,3.5,47.2,5.8c90.7,13.3,158.1,36.7,198.7,54c35.4,15.1,54.3,27,56.4,28.3
			c10,6.4,16.6,17.1,17.3,29c0.8,11.8-3.9,23.2-13,30.9c-0.4,0.3-1.8,1.7-3.9,3.9l-0.6,0.7c-0.7,0.8-1.4,1.6-2.2,2.4
			c-0.1,0.1-0.2,0.3-0.4,0.4c-5.4,6.3-9.6,12.8-12,18.8c-4.5,10.8-8.2,27.2-10.5,38.7c11-3.5,21.8-5.3,32.2-5.3
			c31.1,0,58.3,16,76.6,45.2c19.4,30.8,17.2,57.7,12,74.8c-8.3,27.4-29,47.4-51,61.6c26.7,107.4-2,236.9-34.7,384.8
			c-17.2,77.9-35.1,158.4-46.2,242.1c-2.5,18.6-18.4,32.6-37.2,32.6H102z"/>
		<g>
			<path class="st0" d="M509.8,100.4c24.3,0,50.5,0.8,78.2,2.6c11.6,0.8,23.4,1.7,35.6,2.9c15.8,1.5,30.9,3.4,45.4,5.5
				c85.5,12.6,149.2,34.3,189.4,51.4c33.5,14.3,50.8,25.4,50.8,25.4s-2.7,2.3-6.6,6.5c-0.1,0.1-0.2,0.2-0.3,0.3
				c-0.2,0.2-0.4,0.4-0.6,0.6c-1,1-2,2.2-3.1,3.4c0,0,0,0,0,0c-6.1,7.1-13.6,17.3-18.5,29.1c-9.7,23.2-14.9,59.1-14.9,59.1
				l-0.1,43.5c0,0-11.4-2.2-30.5-5.8c0,0,0,0,0,0c0,0,0,0,0,0c11.3,7.2,21.5,14.8,30.9,22.8h0c0,0,0,0,0,0c0.4-0.3,0.8-0.7,1.2-1
				c0,0,0.1-0.1,0.1-0.1c0.5-0.4,1-0.8,1.5-1.3c0.1-0.1,0.2-0.2,0.3-0.2c0.5-0.4,1-0.8,1.4-1.2c0.1-0.1,0.2-0.2,0.4-0.3
				c0.5-0.4,0.9-0.8,1.4-1.2c0.2-0.2,0.4-0.3,0.6-0.5c0.4-0.3,0.8-0.7,1.3-1c0.3-0.2,0.5-0.4,0.8-0.6c0.4-0.3,0.9-0.7,1.3-1
				c0.3-0.2,0.5-0.4,0.8-0.6c0.4-0.3,0.8-0.6,1.2-0.9c0.3-0.2,0.6-0.4,0.9-0.7c0.4-0.3,0.8-0.6,1.2-0.9c0.4-0.3,0.8-0.6,1.2-0.9
				c0.3-0.2,0.6-0.4,0.9-0.6c0.5-0.3,1-0.7,1.4-1c0.3-0.2,0.5-0.3,0.8-0.5c0.5-0.3,1-0.7,1.5-1c0.2-0.2,0.5-0.3,0.7-0.5
				c0.5-0.3,1.1-0.7,1.6-1c0.3-0.2,0.6-0.4,0.8-0.5c0.5-0.3,1-0.6,1.5-1c0.4-0.3,0.8-0.5,1.3-0.8c0.4-0.3,0.9-0.5,1.3-0.8
				c0.4-0.2,0.8-0.5,1.2-0.7c0.5-0.3,1-0.6,1.5-0.8c0.4-0.2,0.7-0.4,1.1-0.6c0.5-0.3,1-0.5,1.5-0.8c0.4-0.2,0.8-0.4,1.2-0.6
				c0.4-0.2,0.9-0.5,1.3-0.7c0.5-0.3,1-0.5,1.5-0.8c0.3-0.2,0.7-0.3,1-0.5c0.6-0.3,1.2-0.6,1.8-0.8c0.3-0.1,0.5-0.2,0.8-0.4
				c0.6-0.3,1.3-0.6,1.9-0.8c0.1-0.1,0.3-0.1,0.4-0.2c0,0,0,0,0,0c9.2-3.9,18.8-6.4,28.3-6.4c16.2,0,32.1,7.3,44.9,27.6
				c33.5,53.2-26.7,86.8-52,98.1c0,0,0,0,0,0c57.2,154-39.3,384.1-73.3,640.3H755.2h-65.6h-2.8H322.3h-93.8h-65.7h-34.3H102
				c0-0.1,0-0.2,0-0.3c0.5-3.7,1-7.3,1.5-11c0.5-3.6,1-7.2,1.5-10.8c0-0.2,0-0.3,0.1-0.5c1-7.5,1.9-14.9,2.8-22.4c0-0.1,0-0.3,0-0.4
				c0.4-3.7,0.9-7.4,1.3-11.1c0.4-3.7,0.8-7.4,1.3-11.2c0-0.1,0-0.2,0-0.3c0.4-3.7,0.8-7.5,1.2-11.2c0.8-7.5,1.6-15,2.3-22.6
				c0.4-3.8,0.7-7.5,1.1-11.3c0.3-3.8,0.7-7.5,1-11.3c0.3-3.8,0.7-7.5,1-11.3c0.6-7.4,1.3-14.8,1.9-22.1c0-0.1,0-0.2,0-0.3
				c1.2-14.8,2.4-29.6,3.5-44.4c0.8-10.6,1.6-21.2,2.3-31.7c0.3-4.3,0.6-8.5,0.9-12.7c0.4-5.2,0.7-10.4,1.1-15.5
				c0.4-6.3,0.9-12.5,1.3-18.7c0.4-6.2,0.9-12.4,1.4-18.6c0.2-3.1,0.4-6.2,0.7-9.2c0.2-3.1,0.5-6.1,0.7-9.2c0.2-3.1,0.5-6.1,0.7-9.2
				c0.3-3.3,0.5-6.5,0.8-9.8c0.5-5.8,1-11.7,1.4-17.5c0.8-9,1.6-18,2.4-26.9c0.3-3,0.6-5.9,0.8-8.9c0.3-2.9,0.6-5.9,0.9-8.8
				c0.6-5.8,1.2-11.7,1.8-17.5c0.6-5.4,1.2-10.8,1.8-16.2c0.2-2,0.5-3.9,0.7-5.8c0.1-0.7,0.2-1.5,0.3-2.2c0.3-2.3,0.6-4.6,0.9-6.9
				c0.2-1.8,0.5-3.7,0.7-5.5c0.2-1.3,0.3-2.7,0.5-4c0.2-1.5,0.4-3,0.6-4.6c0.1-0.5,0.1-1,0.2-1.5c0.3-2.2,0.6-4.4,0.9-6.6
				c0.3-2.4,0.7-4.9,1.1-7.3c0.7-4.8,1.4-9.6,2.2-14.4c0.4-2.4,0.8-4.8,1.2-7.1c0.4-2.4,0.8-4.7,1.2-7.1c0.4-2.3,0.8-4.5,1.2-6.8
				c0-0.2,0-0.3,0.1-0.5c0.4-2.1,0.8-4.3,1.2-6.4c0.1-0.3,0.1-0.6,0.2-1c0.4-2.1,0.8-4.2,1.2-6.3c0.9-4.6,1.8-9.2,2.8-13.7
				c0.5-2.2,0.9-4.4,1.4-6.7c0.2-0.9,0.4-1.9,0.6-2.8c0.9-4.1,1.8-8.1,2.8-12.1c0.4-1.6,0.8-3.1,1.2-4.7c0.8-3.4,1.7-6.9,2.6-10.3
				c0.9-3.4,1.8-6.8,2.8-10.1c0.5-1.7,0.9-3.3,1.4-5s1-3.3,1.5-5c0.5-1.7,1-3.3,1.5-4.9c0.5-1.6,1-3.3,1.5-4.9
				c1-3.2,2.1-6.5,3.2-9.6c0.5-1.6,1.1-3.2,1.7-4.8c0.6-1.7,1.2-3.4,1.8-5.1c0.6-1.7,1.3-3.4,1.9-5.1c0.6-1.7,1.3-3.4,1.9-5.1
				c0.7-1.7,1.3-3.3,2-5c0.9-2.2,1.8-4.4,2.7-6.6c0.9-2.2,1.9-4.3,2.8-6.5c1-2.1,1.9-4.3,2.9-6.4c0.5-1.1,1-2.1,1.5-3.2
				c1-2.1,2-4.2,3.1-6.3c1-2.1,2.1-4.1,3.1-6.2c0.7-1.3,1.4-2.7,2.1-4c0.9-1.7,1.8-3.4,2.8-5c1.7-3,3.4-5.9,5.1-8.8
				c0.6-1,1.2-1.9,1.8-2.9c1.2-1.9,2.4-3.8,3.6-5.7c0.9-1.4,1.8-2.8,2.8-4.2c0.9-1.4,1.9-2.8,2.8-4.2c1-1.5,2-2.9,3.1-4.4
				c0.4-0.6,0.9-1.3,1.4-1.9c0.3-0.4,0.5-0.7,0.8-1.1c0.5-0.7,1-1.4,1.5-2c1.7-2.3,3.4-4.5,5.2-6.7c0.5-0.6,0.9-1.2,1.4-1.8
				c0.4-0.4,0.7-0.9,1.1-1.3c0.6-0.7,1.1-1.4,1.7-2.1c1.4-1.7,2.8-3.4,4.3-5c0,0,0,0,0,0c-9.2-7.2-24.5-20.8-34.3-37.5
				c-12.7-21.4-16.5-47.9,12.7-73c0.3-0.2,0.5-0.4,0.8-0.6c0.3-0.3,0.6-0.5,0.9-0.8c0.1-0.1,0.2-0.2,0.3-0.2c0.5-0.4,1-0.8,1.5-1.2
				c0,0,0.1-0.1,0.1-0.1c0.5-0.4,1.1-0.8,1.6-1.2c0.1,0,0.1-0.1,0.2-0.1c0.5-0.4,1-0.7,1.5-1.1c0.1,0,0.1-0.1,0.2-0.1
				c0.5-0.3,1-0.7,1.5-1c0.1,0,0.2-0.1,0.2-0.1c0.5-0.3,1-0.6,1.5-1c0.3-0.2,0.7-0.4,1-0.6c0.2-0.1,0.4-0.2,0.5-0.3
				c0.4-0.2,0.7-0.4,1.1-0.6c0.2-0.1,0.3-0.2,0.5-0.3c0.2-0.1,0.4-0.2,0.5-0.3c0,0,0,0,0,0c7.8-4,15.4-5.8,22.7-5.8
				c35.5,0,63.7,41.5,74.6,60.3c1.3-0.6,2.6-1.1,3.9-1.7c0.5-0.2,1-0.4,1.5-0.6c1.3-0.6,2.6-1.1,4-1.6c1.6-0.6,3.1-1.3,4.7-1.9
				c0,0,0,0,0,0c1.5-0.6,3-1.1,4.5-1.7c1.2-0.5,2.4-0.9,3.6-1.3c0.8-0.3,1.6-0.6,2.4-0.8c1.2-0.4,2.4-0.8,3.6-1.2
				c0.9-0.3,1.9-0.6,2.8-0.9c0.5-0.2,1.1-0.4,1.6-0.5c0.7-0.2,1.4-0.4,2-0.6c1-0.3,2-0.6,3-0.9c0.5-0.1,1-0.3,1.5-0.4
				c-0.2-0.2-0.4-0.5-0.7-0.7c-19.3-1.1-30.1-1.3-30.1-1.3l6.2-40.1c0,0-0.6-32.1-6.1-53.1c-0.5-1.9-1.1-3.9-1.8-6c0,0,0,0,0,0
				c-7-19.9-23-43.1-23-43.1S392.9,100.4,509.8,100.4 M509.8,25.4C509.8,25.4,509.8,25.4,509.8,25.4c-124.5,0-204.7,19.2-208.1,20.1
				c-24.1,5.9-43.8,23.1-52.5,46.3c-6.2,16.5-6.4,34.3-0.9,50.5c-14.6,1.6-28.9,5.8-42.6,12.6c-0.6,0.3-1.1,0.5-1.7,0.8
				c-0.5,0.3-1,0.5-1.6,0.8c-0.2,0.1-0.4,0.2-0.6,0.3l-0.1,0c-0.8,0.5-1.6,0.9-2.4,1.4c-0.4,0.2-0.8,0.4-1.2,0.7l0,0l-0.1,0.1
				c-0.7,0.4-1.3,0.8-2,1.2l0,0c-1.1,0.6-2.2,1.3-3.2,2c-0.3,0.2-0.5,0.3-0.8,0.5c-0.9,0.6-1.8,1.2-2.7,1.8c0,0-0.1,0.1-0.1,0.1
				c-0.2,0.1-0.3,0.2-0.5,0.3c-1,0.7-1.9,1.4-2.9,2.1c-0.1,0-0.1,0.1-0.2,0.1l-0.1,0.1l0,0c-1,0.7-2.1,1.5-3.1,2.3l-0.2,0.2
				c0,0,0,0-0.1,0c-0.9,0.7-1.8,1.4-2.7,2.1c-0.2,0.2-0.4,0.4-0.7,0.5c0,0,0,0,0,0c-0.5,0.4-1,0.9-1.6,1.3c-0.5,0.4-0.9,0.8-1.4,1.2
				c-0.1,0.1-0.1,0.1-0.2,0.2c-35.8,30.8-45.8,64.9-47.8,88.1c-2.4,26.8,4.3,54.4,19.5,80c0.9,1.5,1.8,3,2.7,4.4
				c-2,3.4-4,6.8-5.8,10.1c-1.1,1.9-2.2,3.9-3.4,6.2c0,0,0,0,0,0.1c-0.8,1.5-1.6,3.1-2.5,4.6c0,0,0,0,0,0.1
				c-1.4,2.7-2.7,5.2-3.9,7.7c-1.1,2.3-2.2,4.5-3.5,7.1c0,0.1-0.1,0.2-0.1,0.3c-0.6,1.3-1.2,2.6-1.9,3.9c-1.2,2.5-2.3,4.9-3.3,7.3
				c0,0.1-0.1,0.2-0.1,0.3c-1,2.3-2.1,4.8-3.2,7.4c0,0.1-0.1,0.2-0.1,0.3c-1.1,2.7-2.2,5.2-3.1,7.6c-0.7,1.8-1.5,3.7-2.2,5.6
				c-0.1,0.2-0.1,0.3-0.2,0.5c-0.7,1.9-1.5,3.8-2.2,5.7c0,0.1-0.1,0.2-0.1,0.2l-0.4,1.2c-0.6,1.5-1.1,3-1.6,4.4c0,0,0,0.1,0,0.1
				c-0.7,1.9-1.4,3.8-2,5.6c-0.6,1.8-1.3,3.7-2,5.7c-1.4,4-2.6,7.6-3.6,11c-0.6,1.7-1.1,3.5-1.6,5.2c0,0,0,0.1,0,0.1
				c-0.6,1.9-1.2,3.8-1.7,5.6c-0.5,1.8-1.1,3.7-1.7,5.7c-0.5,1.8-1.1,3.6-1.6,5.5c-1,3.7-2.1,7.5-3.1,11.2c-0.9,3.5-1.9,7.3-3,11.5
				c-0.4,1.7-0.8,3.4-1.3,5.1c-1,4.1-2,8.5-3.1,13.2c-0.2,1.1-0.5,2.2-0.7,3.3c-0.6,2.5-1.1,4.8-1.5,7.1c-1.1,5-2.1,10-3,14.8
				c-0.4,2-0.8,4-1.2,6.1c-0.2,0.8-0.3,1.7-0.5,2.5c-0.3,1.8-0.7,3.5-1,5.3l0,0c-0.1,0.8-0.3,1.5-0.4,2.3c-0.4,2.1-0.8,4.2-1.1,6.3
				h0c-0.4,2.5-0.9,5.1-1.3,7.6c-0.3,1.7-0.6,3.5-0.9,5.3l-0.3,2.1c0,0.1,0,0.2-0.1,0.3c-0.9,5.4-1.6,10.4-2.4,15.3c0,0,0,0.1,0,0.1
				l-0.3,1.8c-0.3,1.9-0.6,3.8-0.8,5.7c-0.3,2.1-0.6,4.2-0.9,6.3c-0.1,0.9-0.3,1.8-0.3,2.5c-0.1,0.8-0.2,1.5-0.3,2.3l-0.2,1.8
				c0,0.1,0,0.1,0,0.2c-0.2,1.5-0.4,3-0.6,4.5c-0.3,1.9-0.5,3.8-0.7,5.7c-0.3,2.4-0.6,4.8-0.9,7.2l-0.1,1l-0.1,1.2
				c0,0.1,0,0.2,0,0.2l-0.7,5.9c-0.7,5.6-1.3,11.3-1.9,16.9c-0.7,6.1-1.3,12.2-1.9,18c-0.3,3-0.6,6.1-0.9,9.1
				c-0.3,3.1-0.6,6.1-0.9,9.2c-0.8,8.5-1.6,17.5-2.4,27.5c-0.5,5.8-1,11.7-1.5,17.7c-0.3,3.3-0.5,6.6-0.8,10h0
				c-0.2,3.1-0.5,6.2-0.7,9.3c-0.2,3.1-0.5,6.2-0.7,9.2c-0.2,3.1-0.5,6.3-0.7,9.5c-0.5,6.2-0.9,12.4-1.4,18.7c0,0,0,0.1,0,0.1
				c-0.4,5-0.7,10-1.1,15L52,812l-1.1,15.6c0,0,0,0,0,0c-0.3,4.2-0.6,8.4-0.9,12.6c0,0,0,0.1,0,0.1c-0.7,10.3-1.5,20.9-2.3,31.5
				c-1.2,16-2.3,30.3-3.4,43.8c0,0.2,0,0.5-0.1,0.7c-0.5,6.2-1.1,12.8-1.8,21.4c-0.3,3.7-0.6,7.3-1,11c-0.3,3.7-0.7,7.3-1,11
				l-0.3,3.6c-0.2,2.5-0.5,4.9-0.7,7.4c0,0,0,0.1,0,0.1c-0.7,7.3-1.5,14.7-2.2,22l-0.1,0.8c-0.4,3.3-0.7,6.5-1.1,9.8
				c0,0.1,0,0.3,0,0.4c-0.4,3.6-0.8,7.2-1.2,10.7c0,0.1,0,0.1,0,0.2c-0.3,2.4-0.5,4.7-0.8,7.1l-0.4,3.4c0,0.2-0.1,0.5-0.1,0.6
				c-0.8,6.9-1.7,14.1-2.7,21.5c0,0.1,0,0.2,0,0.4l0,0.2c-0.5,3.4-0.9,6.9-1.4,10.3c-0.5,3.4-1,6.9-1.4,10.3
				c-3.1,20.6,2.6,41.6,15.7,58c14.2,17.7,35.8,28.1,58.5,28.1h26.4h34.3h65.7h93.8h364.6h2.8h65.6h100.9
				c37.6,0,69.4-27.9,74.3-65.1c10.9-82,28.5-161.8,45.6-238.9c17.6-79.7,34.3-155,41.8-225.6c4.3-39.9,5.3-75,3.1-107.5
				c-1-15.4-2.8-30.1-5.2-44.2c22.5-19.2,37.7-41.5,45.3-66.3c5.4-17.6,6.6-35.8,3.7-54c-2.8-17.7-9.5-35.1-19.9-51.6
				c-12.7-20.2-28.6-35.8-47.4-46.6c-11-6.3-22.7-10.8-35-13.4c15.8-15,23.7-35.8,22.4-57.9c-1.3-24-15-45.2-35.2-58.2
				c-3.8-2.4-24.5-15.3-62-31.3c-42.6-18.1-113.3-42.7-207.9-56.6c-16.2-2.4-32.7-4.4-49-6c-12.4-1.2-25.1-2.3-37.8-3.1
				C565.3,26.3,537.3,25.4,509.8,25.4L509.8,25.4L509.8,25.4z"/>
		</g>
	</g>
</g>
<g id="Layer_1">
	<g>
		<g>
			<path class="st1" d="M252.6,350.2c-2-1.4-50.2-33.6-52.6-73.2c-1.1-17.1,6.7-33,23-47c12.3-10.6,25.2-16,38.3-16
				c47,0,80.4,67.9,81.8,70.8l0.9,1.9L254,351.2L252.6,350.2z"/>
			<path d="M261.2,216.5c45.9,0,79.5,69.4,79.5,69.4l-86.8,62.2c0,0-93-61.5-29.4-116.2C237.3,220.9,249.7,216.5,261.2,216.5
				 M261.2,211.5c-13.7,0-27.1,5.6-39.9,16.6c-17,14.6-25,31.1-23.9,49.1c2.6,40.8,51.7,73.7,53.8,75.1l2.9,1.9l2.8-2l86.8-62.2
				l3.4-2.5l-1.8-3.8c-0.4-0.7-8.8-18.1-23.2-35.7c-8.5-10.4-17.4-18.8-26.3-24.8C284.4,215.5,272.7,211.5,261.2,211.5L261.2,211.5z
				"/>
		</g>
		<g>
			<path class="st2" d="M298.6,316.1l-44.7,32c0,0-93-61.5-29.4-116.2c4.7-4.1,9.4-7.2,14-9.6c-5.8,14.9-10.3,33.7-5.8,50.6
				c9.2,34.9,38.9,47.2,51.9,39.3C289.8,309.1,294.7,311.7,298.6,316.1z"/>
		</g>
		<path class="st3" d="M313.3,305.6c0,0-39.1-64.5-60.7-40.5c-15.5,17.2,10.8,37.5,32.5,60.7L313.3,305.6z"/>
	</g>
	<g>
		<g>
			<path class="st1" d="M851.1,358.2l1.4-1.5c1.7-1.9,43.1-45.6,83.9-45.6c19.2,0,35,9.7,47,28.8c10.4,16.5,12.9,32.7,7.5,48.1
				c-13.3,37.6-68.9,57.1-71.2,57.9l-1.7,0.6L851.1,358.2z"/>
			<path d="M936.5,313.5c16.2,0,32.1,7.3,44.9,27.6c41.8,66.5-62.4,102.3-62.4,102.3l-64.5-85.1
				C854.4,358.3,896.2,313.5,936.5,313.5 M936.5,308.5L936.5,308.5c-41.9,0-84,44.5-85.7,46.4l-2.9,3.1l2.5,3.4l64.5,85.1l2.2,2.9
				l3.4-1.2c2.4-0.8,59.1-20.7,72.8-59.4c5.7-16.1,3.1-33-7.7-50.3C973.1,318.6,956.6,308.5,936.5,308.5L936.5,308.5z"/>
		</g>
		<g>
			<path class="st2" d="M908.1,319.9c-11.2,20.5-21.3,47.5-22.6,79.6l-31.2-41.1C854.4,358.3,878.8,332.2,908.1,319.9z"/>
		</g>
		<path class="st3" d="M895.8,412.9c27.6-15.8,57.6-29.4,47.9-50.5c-13.5-29.3-68.8,22.8-68.8,22.8L895.8,412.9z"/>
	</g>
	<g>
		<path class="st1" d="M98.9,1082l0.7-3c0.5-3.7,1-7.4,1.5-11.1c0.5-3.6,1-7.1,1.4-10.7l0.1-0.6c1-7.7,1.9-15.2,2.8-22.4l0.5-4.2
			c0.3-2.4,0.6-4.8,0.8-7.3c0.4-3.7,0.8-7.4,1.2-11.1l0-0.3c0.4-3.5,0.8-7,1.1-10.6l0.1-0.6c0.8-7.5,1.5-15,2.3-22.5
			c0.3-2.6,0.5-5.1,0.7-7.7l0.3-3.6c0.3-3.6,0.7-7.2,1-10.9l0-0.4c0.3-3.7,0.7-7.5,1-11.2c0.6-7.4,1.3-14.8,1.9-22.1l2.5,0.1
			l-2.5-0.2v-0.1l0,0c1.1-13.7,2.3-28.2,3.4-44.3c0.8-10.6,1.6-21.2,2.3-31.7c0.3-4.3,0.6-8.5,0.9-12.7l1.3-18.7
			c0.4-5.2,0.7-10.4,1.1-15.5c0.5-6.2,0.9-12.4,1.4-18.6c0.2-3.1,0.5-6.2,0.7-9.2l0-0.4c0.2-2.9,0.4-5.9,0.7-8.8
			c0.2-3,0.5-6.1,0.7-9.2c0.3-3.3,0.5-6.5,0.8-9.8c0.5-5.8,1-11.7,1.4-17.5c0.8-9.8,1.6-18.6,2.4-26.9c0.3-3,0.6-5.9,0.8-8.9
			c0.3-2.9,0.6-5.9,0.9-8.8c0.6-5.9,1.2-11.7,1.8-17.5c0.6-5.4,1.2-10.9,1.8-16.2l0.7-5.8l0.3-2.2c0.3-2.3,0.6-4.6,0.9-6.9
			c0.2-1.8,0.5-3.7,0.7-5.5c0.2-1.3,0.3-2.7,0.5-4c0,0,0.5-3.7,0.6-4.6c0.1-0.5,0.1-1,0.2-1.5c0.3-2.1,0.6-4.3,0.9-6.5
			c0.3-1.8,0.5-3.6,0.8-5.4l0.3-1.9c0.7-4.6,1.4-9.5,2.2-14.4l0.4-2.2c0.3-1.7,0.5-3.3,0.8-5c0.4-2.4,0.8-4.7,1.2-7.1
			c0.4-2.2,0.8-4.5,1.2-6.7c0-0.2,0.1-0.4,0.1-0.6l0.1-0.5c0.4-2,0.7-3.9,1.1-5.9c0-0.3,0.1-0.7,0.2-1c0.4-2,0.8-4.1,1.2-6.2
			c1-5.1,1.9-9.6,2.8-13.7c0.5-2.2,1-4.5,1.4-6.7c0.2-0.9,0.4-1.9,0.6-2.8c1-4.4,1.9-8.3,2.8-12.1c0.4-1.6,0.8-3.1,1.1-4.7
			c0.8-3.3,1.7-6.8,2.7-10.3c0.9-3.4,1.8-6.8,2.8-10.2c0.5-1.7,1-3.3,1.4-5c0.5-1.7,1-3.3,1.5-5c0.5-1.6,1-3.3,1.5-4.9
			c0.5-1.7,1-3.3,1.5-4.9c1.1-3.4,2.1-6.6,3.2-9.7c0.5-1.6,1.1-3.2,1.7-4.8c0.6-1.7,1.2-3.5,1.9-5.2c0.5-1.3,1-2.6,1.4-3.9l0.5-1.2
			c0.6-1.7,1.3-3.4,2-5.1c0.7-1.7,1.3-3.4,2-5c0.9-2.2,1.8-4.4,2.7-6.6c0.9-2.2,1.9-4.4,2.8-6.5c1-2.2,1.9-4.3,2.9-6.4
			c0.5-1.1,1-2.1,1.5-3.2c1-2.1,2-4.2,3.1-6.3c1-2,2-4,3.2-6.2c0.7-1.4,1.4-2.7,2.2-4.1c0.9-1.7,1.8-3.4,2.8-5.1
			c1.7-3,3.4-6,5.2-8.9c0.6-1,1.2-2,1.8-2.9c1.2-2,2.4-3.9,3.6-5.8c0.9-1.4,1.9-2.8,2.8-4.3c0.9-1.4,1.9-2.8,2.8-4.2
			c1-1.4,2-2.9,3.1-4.4c0.4-0.6,0.9-1.3,1.4-1.9c0.2-0.4,0.5-0.8,0.8-1.1l0.3-0.4c0.4-0.5,0.8-1.1,1.2-1.6c1.6-2.1,3.3-4.3,5.2-6.7
			c0.5-0.6,1-1.2,1.4-1.8c0.3-0.4,0.7-0.9,1.1-1.3c0.6-0.7,1.2-1.4,1.7-2.1c1.4-1.7,2.9-3.4,4.3-5c0.1-0.1,0.2-0.3,0.4-0.4
			c0.9-1,1.8-2,2.7-3c0.2-0.2,0.4-0.4,0.5-0.6c0.8-0.9,1.7-1.8,2.6-2.7c0.3-0.4,0.7-0.8,1.1-1.2c0.8-0.8,1.6-1.7,2.5-2.6
			c0.2-0.2,0.5-0.5,0.7-0.8c0.8-0.8,1.7-1.7,2.6-2.6c0.4-0.4,0.8-0.8,1.2-1.2c0.8-0.8,1.6-1.6,2.5-2.4c0.3-0.3,0.6-0.6,0.9-0.9
			c1-1,2.1-1.9,3.1-2.9l0.3-0.3c1.2-1,2.3-2.1,3.5-3.1c1.2-1.1,2.5-2.1,3.8-3.2c0.2-0.2,0.4-0.3,0.5-0.5c1-0.8,1.9-1.6,2.9-2.4
			c0.5-0.4,0.9-0.8,1.4-1.1c0.6-0.5,1.3-1,1.9-1.5c0.4-0.4,0.9-0.8,1.5-1.1c1-0.8,2-1.5,3.1-2.3c1.1-0.9,2.3-1.7,3.5-2.5
			c0.2-0.2,0.4-0.3,0.6-0.5c0.9-0.6,1.7-1.2,2.6-1.9c1.8-1.2,3.6-2.4,5.3-3.6c0.9-0.6,1.9-1.2,2.9-1.9c0.3-0.2,0.6-0.4,0.9-0.6
			c0.9-0.6,1.9-1.2,2.8-1.8c0.2-0.1,0.5-0.3,0.8-0.5c1-0.7,2.1-1.3,3.2-1.9c0.7-0.4,1.4-0.8,2.2-1.3c0.8-0.5,1.6-0.9,2.5-1.4
			c1-0.6,2-1.2,3.1-1.7c0.2-0.1,0.4-0.2,0.6-0.3c0.8-0.4,1.6-0.9,2.4-1.3c1.8-1,3.6-1.9,5.1-2.7c1.2-0.6,2.4-1.2,3.6-1.8
			c0.4-0.2,0.8-0.4,1.2-0.6c1-0.5,2-1,3.1-1.4c0.1-0.1,0.2-0.1,0.4-0.2c1.3-0.6,2.6-1.2,3.9-1.8l0.5-0.2h0c1.1-0.5,2.3-1,3.4-1.5
			c0.5-0.2,1.1-0.5,1.6-0.7c1.3-0.5,2.6-1.1,3.9-1.6c1.6-0.6,3.2-1.3,4.8-1.9l0.4-0.2h0c1.4-0.5,2.7-1,4.1-1.5
			c1.2-0.5,2.4-0.9,3.7-1.3c0.6-0.2,1.2-0.4,1.8-0.6l0.6-0.2c1.2-0.4,2.5-0.8,3.7-1.2c0.9-0.3,1.9-0.6,2.8-0.9
			c0.5-0.2,1.1-0.4,1.7-0.5c0.6-0.2,1.3-0.4,2-0.6c1-0.3,2-0.6,3-0.9l1.8-0.5h0c0.5-0.2,1-0.3,1.6-0.4c0.1,0,0.2-0.1,0.3-0.1
			c1-0.3,2-0.6,3-0.8l0.5-0.1c0.9-0.3,1.8-0.5,2.8-0.7c5.7-1.5,11.5-2.9,17.5-4.2l2.6-0.5c3.3-0.7,6.8-1.4,10.4-2
			c1.1-0.2,2.1-0.4,3.1-0.5c0.8-0.2,1.7-0.3,2.6-0.4c0.9-0.1,1.8-0.3,2.7-0.4c0.8-0.1,1.6-0.3,2.4-0.4c2.4-0.4,4.7-0.7,6.9-1
			l0.2-0.1l0.4,0c2.6-0.3,5-0.6,7.3-0.9c1.2-0.1,2.5-0.3,3.7-0.4c1-0.1,2.1-0.2,3.2-0.3c2.5-0.3,5.1-0.5,8-0.8
			c0.8-0.1,1.7-0.2,2.5-0.2c0.5,0,1.1-0.1,1.6-0.1c1.1-0.1,2.2-0.2,3.3-0.3c1.6-0.1,3.1-0.2,4.7-0.3c0.8-0.1,1.7-0.1,2.5-0.2l0.2,0
			c1.2-0.1,2.5-0.1,3.7-0.2c1.6-0.1,3.2-0.2,4.8-0.2c1.6-0.1,3.1-0.1,4.7-0.2c2.7-0.1,5.6-0.2,8.7-0.2c1.2,0,2.5,0,3.7-0.1
			c2.6,0,5.2-0.1,7.8-0.1c7.5,0,15.2,0.1,23,0.4c13.2,0.5,27,1.3,41,2.6c11.4,1,23.2,2.3,35,3.8c6,0.8,12.1,1.6,17.9,2.4
			c0,0,2.4,0.4,3,0.4c3.1,0.4,6.5,1,10.7,1.6l3,0.5c0.7,0.1,1.4,0.2,2.1,0.3l6.2,1c4.7,0.8,9,1.6,13.2,2.4c1.4,0.3,2.9,0.5,4.3,0.8
			c7.3,1.4,14.7,2.9,22.1,4.5l2.1,0.5l1.3,0.3c1.9,0.4,3.7,0.8,5.4,1.2l0.1,0c1.6,0.4,3.1,0.7,4.7,1.1c5.1,1.2,10.3,2.5,15.3,3.8
			l0.3,0.1c0.3,0.1,0.6,0.2,0.9,0.2c1,0.3,2.1,0.5,3.1,0.8c23.2,6.3,44.9,13.6,64.4,21.7c18.9,7.9,36.3,16.7,51.8,26.3
			c0.8,0.5,1.7,1,2.5,1.6h1.8l0,1.1c10.5,6.7,20.3,14,29.3,21.7l0.7,0.6c8.6,7.4,16.6,15.3,23.8,23.5l0.3,0.4c0.3,0.3,0.6,0.7,0.8,1
			c8.4,9.8,16,20.4,22.5,31.5c6.6,11.2,12.4,23.4,17.1,36.1c38.4,103.5,8.3,239.3-26.5,396.5c-17.4,78.6-35.4,159.9-46.7,245
			l-0.3,2.2H98.9z"/>
		<path d="M501.9,246.3c7.5,0,15.1,0.1,22.9,0.4c13.2,0.5,26.8,1.3,40.9,2.6c11.3,1,23,2.3,35,3.8c6,0.8,12,1.6,17.8,2.4
			c1,0.2,2,0.3,3,0.4c3.6,0.5,7.2,1.1,10.7,1.6c1,0.2,2,0.3,3,0.5c0.8,0.1,1.7,0.3,2.5,0.4c2,0.3,3.9,0.6,5.8,1
			c4.4,0.8,8.8,1.5,13.1,2.4c1.4,0.3,2.9,0.5,4.3,0.8c7.5,1.4,14.8,2.9,22,4.5c0.7,0.1,1.4,0.3,2.1,0.5c0.5,0.1,0.9,0.2,1.3,0.3
			c1.8,0.4,3.6,0.8,5.5,1.3c1.6,0.4,3.1,0.7,4.6,1.1c5.3,1.3,10.4,2.6,15.5,3.9h0c0.3,0.1,0.5,0.1,0.8,0.2c1.1,0.3,2.1,0.6,3.2,0.9
			c23.5,6.4,44.8,13.6,64.1,21.6c19.1,7.9,36.2,16.7,51.5,26.2c1,0.6,2.1,1.3,3.1,2c0,0,0,0,0,0c11.3,7.2,21.5,14.8,30.9,22.8h0
			c8.6,7.4,16.5,15.2,23.5,23.3c0.4,0.5,0.8,0.9,1.2,1.3c8.5,9.9,15.9,20.3,22.3,31.1c6.7,11.4,12.3,23.3,16.9,35.7
			c57.2,154-39.3,384.1-73.3,640.3H102c0-0.1,0-0.2,0-0.3c0.5-3.7,1-7.3,1.5-11c0.5-3.6,1-7.2,1.5-10.8c0-0.2,0-0.3,0.1-0.5
			c1-7.5,1.9-14.9,2.8-22.4c0-0.1,0-0.3,0.1-0.4c0.4-3.7,0.9-7.4,1.3-11.1c0.4-3.7,0.8-7.4,1.3-11.1c0-0.1,0-0.2,0-0.3
			c0.4-3.7,0.8-7.5,1.2-11.2c0.8-7.5,1.6-15,2.3-22.6c0.4-3.8,0.7-7.5,1.1-11.3c0.3-3.8,0.7-7.5,1-11.3c0.3-3.8,0.7-7.5,1-11.3
			c0.6-7.4,1.3-14.8,1.9-22.2c0-0.1,0-0.2,0-0.3c1.2-14.9,2.4-29.6,3.5-44.4c0.8-10.6,1.6-21.2,2.3-31.7c0.3-4.3,0.6-8.5,0.9-12.7
			c0.4-5.2,0.7-10.3,1.1-15.5c0.4-6.3,0.9-12.5,1.3-18.7c0.4-6.2,0.9-12.4,1.4-18.6c0.2-3.1,0.4-6.2,0.7-9.2
			c0.2-3.1,0.5-6.1,0.7-9.2c0.2-3,0.5-6.1,0.7-9.1c0.3-3.3,0.5-6.5,0.8-9.8c0.5-5.9,0.9-11.7,1.4-17.5c0.8-9,1.6-18,2.4-26.8
			c0.3-3,0.6-5.9,0.8-8.9c0.3-2.9,0.6-5.9,0.9-8.8c0.6-5.9,1.2-11.7,1.8-17.5c0.6-5.4,1.2-10.8,1.8-16.2c0.2-1.9,0.5-3.9,0.7-5.8
			c0.1-0.7,0.2-1.5,0.3-2.2c0.3-2.3,0.6-4.6,0.9-6.9c0.2-1.8,0.5-3.7,0.7-5.5c0.2-1.3,0.3-2.7,0.5-4c0.2-1.5,0.4-3,0.6-4.6
			c0.1-0.5,0.1-1,0.2-1.5c0.3-2.2,0.6-4.4,0.9-6.5c0.3-2.4,0.7-4.9,1.1-7.3c0.7-4.8,1.4-9.6,2.2-14.4c0.4-2.4,0.8-4.8,1.2-7.1
			c0.4-2.4,0.8-4.7,1.2-7.1c0.4-2.3,0.8-4.5,1.2-6.8c0-0.2,0-0.3,0.1-0.5c0.4-2.1,0.8-4.3,1.2-6.4c0.1-0.3,0.1-0.7,0.2-1
			c0.4-2.1,0.8-4.2,1.2-6.3c0.9-4.6,1.8-9.2,2.8-13.7c0.5-2.2,0.9-4.4,1.4-6.6c0.2-0.9,0.4-1.9,0.6-2.8c0.9-4.1,1.8-8.1,2.8-12.1
			c0.4-1.6,0.8-3.2,1.2-4.7c0.8-3.4,1.7-6.9,2.6-10.2c0.9-3.4,1.8-6.8,2.8-10.1c0.5-1.7,0.9-3.3,1.4-5s1-3.3,1.5-5
			c0.5-1.6,1-3.3,1.5-4.9c0.5-1.6,1-3.3,1.5-4.9c1-3.2,2.1-6.5,3.2-9.6c0.5-1.6,1.1-3.2,1.7-4.8c0.6-1.7,1.2-3.4,1.8-5.1
			c0.6-1.7,1.3-3.4,1.9-5.1c0.6-1.7,1.3-3.4,1.9-5.1c0.7-1.7,1.3-3.3,2-5c0.9-2.2,1.8-4.4,2.7-6.6c0.9-2.2,1.9-4.4,2.8-6.5
			c1-2.2,1.9-4.3,2.9-6.4c0.5-1.1,1-2.1,1.5-3.2c1-2.1,2-4.2,3.1-6.3c1-2.1,2.1-4.1,3.1-6.2c0.7-1.4,1.4-2.7,2.1-4
			c0.9-1.7,1.8-3.4,2.8-5c1.7-3,3.4-5.9,5.1-8.8c0.6-1,1.2-1.9,1.8-2.9c1.2-1.9,2.4-3.8,3.6-5.7c0.9-1.4,1.8-2.8,2.8-4.2
			c0.9-1.4,1.9-2.8,2.8-4.2c1-1.5,2-2.9,3.1-4.4c0.4-0.6,0.9-1.3,1.4-1.9c0.3-0.4,0.5-0.7,0.8-1.1c0.5-0.7,1-1.4,1.5-2
			c1.7-2.3,3.4-4.5,5.2-6.7c0.5-0.6,0.9-1.2,1.4-1.8c0.4-0.4,0.7-0.9,1.1-1.3c0.6-0.7,1.1-1.4,1.7-2.1c1.4-1.7,2.8-3.4,4.3-5
			c0,0,0,0,0,0c0.1-0.1,0.2-0.2,0.3-0.3c0.9-1.1,1.9-2.1,2.8-3.1c0.1-0.2,0.3-0.4,0.5-0.5c0.8-0.9,1.7-1.8,2.6-2.7
			c0.4-0.4,0.7-0.8,1.1-1.2c0.8-0.9,1.6-1.7,2.5-2.6c0.2-0.2,0.5-0.5,0.7-0.7c0.9-0.9,1.8-1.8,2.6-2.6c0.4-0.4,0.8-0.8,1.2-1.1
			c0.9-0.8,1.7-1.7,2.6-2.5c0.3-0.3,0.6-0.5,0.8-0.8c1-1,2.1-1.9,3.1-2.9c0.1-0.1,0.2-0.2,0.3-0.2c1.1-1,2.3-2.1,3.5-3.1
			c1.3-1.1,2.5-2.1,3.8-3.2c0.2-0.1,0.3-0.3,0.5-0.4c1-0.8,1.9-1.6,2.9-2.4c0.5-0.4,0.9-0.8,1.4-1.1c0.6-0.5,1.3-1,1.9-1.5
			c0.5-0.4,1-0.8,1.4-1.1c1-0.8,2-1.5,3.1-2.3c1.1-0.9,2.3-1.7,3.5-2.5c0.2-0.1,0.4-0.3,0.6-0.4c0.9-0.6,1.8-1.3,2.6-1.9
			c1.7-1.2,3.5-2.4,5.2-3.5c1-0.6,1.9-1.3,2.9-1.9c0.3-0.2,0.5-0.3,0.8-0.5c0.9-0.6,1.9-1.2,2.8-1.8c0.3-0.2,0.5-0.3,0.7-0.5
			c1.1-0.7,2.1-1.3,3.2-1.9c0.7-0.4,1.4-0.8,2.1-1.3c0.8-0.5,1.6-1,2.5-1.4c1-0.6,2-1.1,3.1-1.7c0.2-0.1,0.4-0.2,0.6-0.3
			c0.8-0.4,1.6-0.9,2.4-1.3c1.7-0.9,3.4-1.8,5.1-2.6c1.2-0.6,2.3-1.2,3.5-1.7c0.4-0.2,0.8-0.4,1.2-0.6c1-0.5,2.1-1,3.1-1.5
			c0.1,0,0.1-0.1,0.2-0.1c1.3-0.6,2.6-1.2,4-1.8c0,0,0,0,0,0c1.3-0.6,2.6-1.1,3.9-1.7c0.5-0.2,1-0.4,1.5-0.6c1.3-0.6,2.6-1.1,4-1.6
			c1.6-0.6,3.1-1.3,4.7-1.9c0,0,0,0,0,0c1.5-0.6,3-1.1,4.5-1.7c1.2-0.5,2.4-0.9,3.6-1.3c0.8-0.3,1.6-0.6,2.4-0.8
			c1.2-0.4,2.4-0.8,3.6-1.2c0.9-0.3,1.9-0.6,2.8-0.9c0.5-0.2,1.1-0.4,1.6-0.5c0.7-0.2,1.4-0.4,2-0.6c1-0.3,2-0.6,2.9-0.9
			c0.5-0.1,1-0.3,1.5-0.4c0,0,0,0,0,0c0.6-0.2,1.3-0.4,2-0.6c0,0,0.1,0,0.1,0c1-0.3,2-0.6,3-0.9c1.1-0.3,2.1-0.6,3.2-0.9
			c5.6-1.5,11.4-2.9,17.3-4.1c0.9-0.2,1.7-0.4,2.6-0.5c3.4-0.7,6.9-1.4,10.3-2c1-0.2,2-0.4,3-0.5c0.9-0.2,1.7-0.3,2.6-0.4
			c0.9-0.2,1.8-0.3,2.7-0.4c0.8-0.1,1.6-0.3,2.3-0.4c2.4-0.4,4.8-0.7,7.2-1h0c0,0,0,0,0.1,0c0,0,0,0,0,0c0,0,0,0,0,0
			c2.4-0.3,4.9-0.6,7.4-0.9c1.2-0.2,2.5-0.3,3.7-0.4c1-0.1,2.1-0.2,3.1-0.3c2.6-0.3,5.3-0.5,8-0.8c0.8-0.1,1.7-0.2,2.5-0.2
			c0.5-0.1,1.1-0.1,1.6-0.1c1.1-0.1,2.2-0.2,3.3-0.3c1.6-0.1,3.1-0.2,4.7-0.3c0.8-0.1,1.7-0.1,2.5-0.2c1.3-0.1,2.6-0.1,3.9-0.2
			c1.6-0.1,3.2-0.2,4.8-0.2c1.6-0.1,3.1-0.1,4.7-0.2c2.9-0.1,5.8-0.2,8.7-0.2c1.2,0,2.5,0,3.7-0.1h0
			C496.7,246.4,499.3,246.3,501.9,246.3 M501.9,241.3c-2.6,0-5.2,0-7.8,0.1l0,0c-1.3,0-2.5,0-3.8,0.1c-3.2,0.1-6,0.1-8.8,0.2
			c-1.6,0.1-3.2,0.1-4.8,0.2c-1.6,0.1-3.2,0.1-4.8,0.2c-1.3,0.1-2.6,0.1-3.9,0.2c-0.9,0.1-1.7,0.1-2.6,0.2c-1.8,0.1-3.3,0.2-4.8,0.3
			c-1.1,0.1-2.2,0.2-3.3,0.3c-0.5,0-1.1,0.1-1.6,0.1c-0.8,0.1-1.7,0.1-2.5,0.2c-2.9,0.2-5.5,0.5-8,0.8c-1.1,0.1-2.1,0.2-3.2,0.3
			c-1.2,0.1-2.5,0.3-3.7,0.4c-2.2,0.3-4.6,0.5-7.1,0.9h-0.8l-0.3,0.2c-2.1,0.3-4.3,0.6-6.6,1c-0.8,0.1-1.6,0.2-2.4,0.4
			c-0.9,0.1-1.8,0.3-2.7,0.4c-0.8,0.1-1.7,0.3-2.6,0.4c-1,0.2-2,0.3-3,0.5c-3.6,0.6-7.2,1.3-10.5,2c-0.9,0.2-1.7,0.4-2.6,0.5
			c-6,1.3-11.9,2.7-17.6,4.2c-0.9,0.2-1.8,0.5-2.7,0.7l-0.5,0.1c-1,0.3-2,0.5-2.9,0.8c-0.1,0-0.2,0.1-0.4,0.1
			c-0.4,0.1-0.8,0.2-1.2,0.3h0l-0.7,0.2l-1.4,0.4c-0.9,0.3-1.9,0.5-3,0.9c-0.7,0.2-1.4,0.4-2.1,0.6c-0.6,0.2-1.2,0.4-1.7,0.6
			c-0.9,0.3-1.9,0.6-2.8,0.9c-1.1,0.4-2.4,0.8-3.7,1.2l-0.6,0.2c-0.6,0.2-1.2,0.4-1.8,0.6c-1.4,0.5-2.6,0.9-3.7,1.3
			c-1.3,0.5-2.5,0.9-3.7,1.4h0l-0.9,0.3c-1.8,0.7-3.3,1.3-4.8,1.9c-1.2,0.5-2.5,1-4,1.6c-0.6,0.2-1.2,0.5-1.6,0.7
			c-1,0.4-1.9,0.8-2.9,1.3h0l-1,0.4c-1.3,0.6-2.6,1.2-3.8,1.8c-0.2,0.1-0.4,0.2-0.5,0.3c-1,0.5-2,1-3,1.4c-0.4,0.2-0.8,0.4-1.3,0.6
			c-1.3,0.6-2.5,1.2-3.6,1.8c-1.5,0.8-3.3,1.7-5.2,2.7c-0.8,0.4-1.6,0.8-2.3,1.2c-0.3,0.1-0.6,0.3-0.8,0.4c-1,0.5-2,1.1-3.1,1.7
			c-0.8,0.4-1.6,0.9-2.5,1.5c-0.7,0.4-1.4,0.8-2.2,1.3c-0.9,0.5-2.1,1.2-3.3,2c-0.3,0.2-0.5,0.3-0.8,0.5c-1,0.6-1.9,1.2-2.8,1.8
			c-0.3,0.2-0.6,0.4-0.9,0.6c-0.9,0.5-1.8,1.1-2.9,1.9c-1.7,1.1-3.6,2.4-5.3,3.6c-0.9,0.6-1.7,1.2-2.6,1.8c-0.2,0.2-0.5,0.3-0.7,0.5
			c-1.1,0.8-2.2,1.6-3.5,2.6c-1,0.8-2.1,1.5-3.1,2.3c-0.6,0.4-1.1,0.8-1.5,1.2c-0.7,0.5-1.3,1-1.9,1.5c-0.5,0.4-1,0.8-1.4,1.1
			c-1,0.8-2,1.6-2.9,2.4c-0.2,0.2-0.4,0.3-0.6,0.5c-1.3,1-2.5,2.1-3.8,3.2c-1.3,1.1-2.5,2.2-3.6,3.1l-0.3,0.2
			c-0.9,0.8-2,1.8-3.2,2.9c-0.4,0.3-0.7,0.6-1,0.9c-0.8,0.8-1.7,1.6-2.5,2.4c-0.5,0.4-0.9,0.8-1.2,1.2c-0.9,0.9-1.8,1.7-2.6,2.6
			c-0.3,0.3-0.5,0.5-0.8,0.8c-1,1-1.8,1.8-2.5,2.6c-0.5,0.5-0.8,0.9-1.2,1.2c-0.8,0.9-1.7,1.8-2.5,2.7c-0.2,0.2-0.4,0.4-0.6,0.7
			c-0.9,1-1.8,1.9-2.6,2.9c-0.2,0.2-0.4,0.4-0.5,0.5c-1.5,1.6-2.9,3.3-4.3,5c-0.6,0.7-1.2,1.4-1.8,2.1c-0.4,0.4-0.7,0.9-1.1,1.3
			c-0.5,0.6-1,1.2-1.4,1.8c-1.9,2.4-3.7,4.6-5.3,6.8c-0.4,0.5-0.8,1.1-1.2,1.6l-0.3,0.4c-0.3,0.4-0.6,0.8-0.9,1.2
			c-0.5,0.6-0.9,1.3-1.4,1.9c-1.1,1.5-2.1,3-3.1,4.4c-0.9,1.4-1.9,2.8-2.9,4.2c-0.9,1.3-1.8,2.7-2.8,4.3c-1.2,1.9-2.4,3.8-3.7,5.8
			c-0.7,1.1-1.3,2.1-1.8,3c-1.7,2.9-3.5,5.9-5.2,8.9c-0.9,1.5-1.8,3.2-2.8,5.1c-0.7,1.4-1.4,2.7-2.2,4.1c-1.2,2.2-2.2,4.3-3.2,6.3
			c-1,2-1.9,4-3.1,6.3c-0.5,1.1-1,2.2-1.5,3.2c-1,2.3-2,4.4-2.9,6.5c-0.9,2.1-1.9,4.3-2.9,6.6c-1,2.4-1.9,4.6-2.8,6.7
			c-0.7,1.7-1.3,3.3-2,5c-0.7,1.7-1.3,3.4-2,5.1l-0.5,1.2c-0.5,1.3-1,2.6-1.5,3.9c-0.6,1.7-1.3,3.5-1.9,5.2
			c-0.5,1.5-1.1,3.1-1.7,4.8c-1.1,3.1-2.1,6.4-3.2,9.7c-0.5,1.6-1,3.3-1.6,4.9c-0.5,1.8-1,3.4-1.5,5c-0.5,1.5-1,3.2-1.5,5
			c-0.5,1.7-1,3.3-1.4,5c-1,3.4-1.9,6.8-2.8,10.2c-0.9,3.5-1.8,7-2.6,10.3c-0.4,1.6-0.8,3.2-1.2,4.8c-0.9,3.8-1.8,7.8-2.8,12.2
			c-0.2,0.9-0.4,1.9-0.6,2.9c-0.5,2.3-1,4.5-1.4,6.7c-0.9,4.1-1.8,8.6-2.8,13.8c-0.4,2.1-0.8,4.2-1.2,6.2c-0.1,0.4-0.2,0.7-0.2,1.1
			c-0.3,1.9-0.7,3.7-1,5.6l-0.1,0.6c-0.1,0.3-0.1,0.5-0.1,0.7c-0.4,2.2-0.8,4.5-1.2,6.7c-0.4,2.3-0.8,4.7-1.2,7.1
			c-0.3,1.6-0.5,3.3-0.8,5l-0.3,2.1c-0.8,5-1.5,9.8-2.2,14.5l-0.3,1.9c-0.3,1.8-0.5,3.6-0.8,5.4c-0.3,2.2-0.6,4.3-0.9,6.5
			c-0.1,0.5-0.1,1-0.2,1.5c-0.1,0.9-0.2,1.7-0.3,2.6l-0.3,2c-0.2,1.4-0.4,2.7-0.5,4.1c-0.2,1.8-0.5,3.7-0.7,5.5
			c-0.3,2.3-0.6,4.6-0.9,6.9l-0.1,1.1l-0.1,1.1l-0.7,5.8c-0.6,5.4-1.3,10.9-1.8,16.3c-0.7,6.2-1.3,11.9-1.8,17.5
			c-0.3,2.9-0.6,5.9-0.9,8.8c-0.3,2.9-0.6,5.9-0.8,8.9c-0.8,8.3-1.6,17.1-2.4,26.9c-0.5,5.7-1,11.6-1.4,17.5
			c-0.3,3.2-0.5,6.5-0.8,9.8c-0.2,3-0.5,6.1-0.7,9.2c-0.2,3.1-0.5,6.1-0.7,9.2c-0.2,3.1-0.5,6.2-0.7,9.2c-0.5,6.1-0.9,12.3-1.4,18.6
			c-0.4,5-0.7,10.1-1.1,15.1l-0.3,3.5l-1.1,15.5c-0.3,4.2-0.6,8.5-0.9,12.7c-0.7,10.4-1.5,21.1-2.3,31.7
			c-1.2,16.1-2.3,30.6-3.4,44.3l0,0.2v0l0,0c-0.5,6.4-1.1,13.2-1.9,22.1c-0.3,3.7-0.7,7.5-1,11.2c-0.3,3.7-0.7,7.5-1,11.2l-0.3,3.6
			c-0.2,2.5-0.5,5.1-0.7,7.6c-0.7,7.5-1.5,15.1-2.3,22.5l-0.1,1c-0.4,3.4-0.7,6.8-1.1,10.1l0,0l0,0.3c-0.4,3.7-0.8,7.4-1.2,11.1
			c-0.3,2.5-0.6,4.9-0.9,7.4l-0.4,3.6c0,0.1,0,0.2,0,0.3l0,0.1l0,0.1l0,0c-0.9,7.1-1.8,14.7-2.8,22.3l-0.1,0.5
			c-0.5,3.6-1,7.2-1.4,10.7c-0.5,3.7-1,7.3-1.5,11l0,0.1l-1.3,5.9h6.2h754.1h4.4l0.6-4.3c11.3-85,29.3-166.3,46.6-244.8
			c17.2-77.7,33.5-151.2,40.6-217.9c8-75,3.5-132.2-14.2-180c-4.8-12.8-10.6-25.1-17.3-36.5c-6.6-11.2-14.3-21.9-22.8-31.8
			c-0.2-0.3-0.5-0.6-0.8-0.9l-0.4-0.4c-7.3-8.3-15.4-16.3-24.1-23.8l-1.4-1.2h0c-8.6-7.2-17.9-14.1-27.7-20.5V320l-3.5,0
			c-0.7-0.4-1.3-0.8-2-1.2c-15.6-9.7-33.1-18.6-52.1-26.5c-19.6-8.2-41.4-15.5-64.7-21.8c-1-0.3-2.1-0.6-3.1-0.8
			c-0.3-0.1-0.6-0.2-0.9-0.2l-0.6-0.2h0c-4.9-1.3-9.9-2.6-14.9-3.8c-1.6-0.4-3.1-0.7-4.7-1.1c-1.8-0.4-3.6-0.8-5.5-1.3
			c-0.4-0.1-0.9-0.2-1.3-0.3l-0.9-0.2c-0.4-0.1-0.8-0.2-1.2-0.3c-7.3-1.6-14.8-3.1-22.1-4.5c-1.4-0.3-2.9-0.6-4.3-0.8
			c-4.2-0.8-8.5-1.6-13.2-2.4c-0.9-0.1-1.7-0.3-2.5-0.4c-1.1-0.2-2.2-0.4-3.4-0.6l-0.3,0c-0.8-0.1-1.5-0.3-2.3-0.4l-3-0.5
			c-4.2-0.7-7.6-1.2-10.8-1.6c-0.5-0.1-1.1-0.2-1.7-0.3l-1.3-0.2c-5.8-0.8-11.9-1.7-17.9-2.4c-11.9-1.5-23.7-2.8-35.1-3.8
			c-14.1-1.3-27.9-2.1-41.1-2.6C517.2,241.5,509.4,241.3,501.9,241.3L501.9,241.3z"/>
	</g>
	<path class="st4" d="M688.8,1034.4c0,2.5,0,4.9-0.1,7.4c0,1.2-0.1,2.5-0.1,3.8c0,2.4-0.1,4.9-0.2,7.4c0,0.1,0,0.1,0,0.2
		c-0.1,2.5-0.2,5-0.3,7.6c-0.3,5.4-0.6,10.8-1,16.3c-0.1,0.8-0.1,1.6-0.2,2.4H322.3c2.3-22.4,5.4-44.9,9.7-66.7
		c0.3-1.6,0.6-3.2,1-4.8c0.6-2.9,1.2-5.9,1.9-8.8c0.3-1.4,0.6-2.7,0.9-4.1c0.6-2.7,1.3-5.5,2-8.2c0.5-2.1,1-4.2,1.6-6.2c0,0,0,0,0,0
		c2.1-8.2,4.5-16.2,7.1-24c22.4-68.4,61.7-123.2,130.6-139v0c0,0,0,0,0,0c0.1,0,0.3-0.1,0.4-0.1c1.6-0.4,3.2-0.7,4.8-1
		c0.8-0.2,1.5-0.3,2.3-0.4c0.9-0.2,1.8-0.3,2.8-0.5c0.8-0.1,1.6-0.3,2.4-0.4c1.5-0.2,3-0.4,4.5-0.6c0.3-0.1,0.7-0.1,1-0.1
		c0.2,0,0.3,0,0.5-0.1c1.5-0.2,3.1-0.4,4.6-0.5c0.9-0.1,1.8-0.2,2.7-0.2c1.8-0.1,3.7-0.3,5.5-0.4c4.7-0.3,9.5-0.3,14.5-0.3h0.1
		c0,0,0,0,0,0c9.8,0.1,20.1,0.9,30.9,2.4c1.6,0.2,3.2,0.5,4.8,0.7c83.6,13.6,120.6,81.9,128.4,174.5c0.7,8.3,1.2,16.8,1.4,25.4
		c0.1,3.1,0.2,6.2,0.2,9.3c0,0.1,0,0.2,0,0.3C688.8,1028.5,688.8,1031.5,688.8,1034.4z"/>
	<path class="st2" d="M526.3,755.8c0,0-80.5,46.4-65.9,191c-44.1,9.4-186.5,54.1-186.5,54.1l-90.8-162c0,0-30.4,66.9,47.7,192.4
		c0,0,69-28.5,196.4-29.3s277.1,65.6,277.1,65.6l111.2-134c0,0-68.8-21-147.2,79.3c-56.5-22.3-153.6-49.7-153.6-49.7L526.3,755.8
		L526.3,755.8z"/>
	<path class="st5" d="M688,1060.8c-42.1-16.9-158.6-59.5-260.9-58.9c-36.2,0.2-67.7,2.7-94.2,6.1c1.9-9.2,4-18.3,6.4-27.3
		c43.6-13.1,97-28.8,121.1-34c-5.8-57.5,3.4-99.4,16.6-129.1c14.1-3.2,29.4-4.9,46.1-4.6l-8.4,150.1c0,0,97.1,27.3,153.6,49.7
		c6.4-8.2,12.7-15.6,19-22.2C689.1,1012.8,689.3,1036.3,688,1060.8z"/>
	<path class="st2" d="M715.9,275.2l-1.2,10.5l-2,17.3l-2.6,22.8c0,0-89.9,2.9-194.2,6.2c-18.2,0.6-36.8,1.2-55.5,1.8
		c-19,0.6-38.1,1.2-56.8,1.8c-5.1,0.2-10.2,0.3-15.3,0.5c-32.9,1.1-61.8,9.9-86.8,24.9C216.3,412.4,174.8,536,163.3,671.2
		c-14.3,167.5,6.3,235-34.8,408.3H102c0-0.1,0-0.2,0-0.3c0.5-3.7,1-7.3,1.5-11c0.5-3.6,1-7.2,1.5-10.8c0-0.2,0-0.3,0.1-0.5
		c1-7.5,1.9-14.9,2.8-22.4c0-0.1,0-0.3,0-0.4c0.4-3.7,0.9-7.4,1.3-11.1c0.4-3.7,0.8-7.4,1.3-11.2c0-0.1,0-0.2,0-0.3
		c0.4-3.7,0.8-7.4,1.2-11.2c0.8-7.5,1.6-15,2.3-22.6c0.4-3.8,0.7-7.5,1.1-11.3s0.7-7.5,1-11.3c0.3-3.8,0.7-7.5,1-11.3
		c0.7-7.4,1.3-14.8,1.9-22.1c0-0.1,0-0.2,0-0.3c1.2-14.8,2.4-29.6,3.5-44.4c0.8-10.6,1.6-21.2,2.3-31.7c0.3-4.3,0.6-8.5,0.9-12.7
		c0.4-5.2,0.7-10.4,1.1-15.5c0.5-6.3,0.9-12.5,1.3-18.7c0.5-6.2,0.9-12.4,1.4-18.6c0.2-3.1,0.4-6.2,0.7-9.2c0.2-3.1,0.5-6.1,0.7-9.2
		c0.2-3,0.5-6.1,0.7-9.2c0.3-3.3,0.5-6.5,0.8-9.8c0.5-5.8,0.9-11.7,1.4-17.5c0.8-9,1.5-18,2.4-26.8c0.3-3,0.6-5.9,0.8-8.9
		c0.3-2.9,0.6-5.9,0.9-8.8c0.6-5.8,1.2-11.7,1.8-17.5c0.6-5.4,1.2-10.8,1.8-16.2c0.2-2,0.5-3.9,0.7-5.8c0.1-0.7,0.2-1.5,0.3-2.2
		c0.3-2.3,0.6-4.6,0.9-6.9c0.2-1.8,0.5-3.7,0.7-5.5c0.2-1.3,0.3-2.7,0.5-4c0.2-1.5,0.4-3,0.6-4.6c0.1-0.5,0.1-1,0.2-1.5
		c0.3-2.2,0.6-4.4,0.9-6.5c0.3-2.4,0.7-4.9,1-7.3c0.7-4.8,1.5-9.6,2.2-14.4c0.4-2.4,0.8-4.8,1.2-7.1c0.4-2.4,0.8-4.7,1.2-7.1
		c0.4-2.3,0.8-4.5,1.2-6.8c0-0.2,0-0.3,0.1-0.5c0.4-2.1,0.8-4.3,1.2-6.4c0-0.3,0.1-0.7,0.2-1c0.4-2.1,0.8-4.2,1.2-6.3
		c0.9-4.6,1.8-9.2,2.8-13.7c0.5-2.2,1-4.4,1.4-6.7c0.2-0.9,0.4-1.9,0.6-2.8c0.9-4.1,1.8-8.1,2.8-12.1c0.4-1.6,0.8-3.1,1.2-4.7
		c0.9-3.4,1.7-6.9,2.6-10.3c0.9-3.4,1.8-6.8,2.8-10.1c0.5-1.7,1-3.3,1.4-5c0.5-1.7,1-3.3,1.5-5c0.5-1.7,1-3.3,1.5-4.9
		c0.5-1.6,1-3.3,1.5-4.9c1-3.2,2.1-6.5,3.2-9.6c0.5-1.6,1.1-3.2,1.7-4.8c0.6-1.7,1.2-3.4,1.8-5.1c0.6-1.7,1.3-3.4,1.9-5.1
		c0.6-1.7,1.3-3.4,1.9-5.1c0.7-1.7,1.3-3.3,2-5c0.9-2.2,1.8-4.4,2.7-6.6c0.9-2.2,1.9-4.3,2.8-6.5c1-2.1,1.9-4.3,2.9-6.4
		c0.5-1.1,1-2.1,1.5-3.2c1-2.1,2-4.2,3-6.3c1-2.1,2.1-4.1,3.2-6.2c0.7-1.3,1.4-2.7,2.1-4c0.9-1.7,1.8-3.4,2.8-5
		c1.7-3,3.4-5.9,5.1-8.8c0.6-1,1.2-1.9,1.8-2.9c1.2-1.9,2.4-3.8,3.6-5.7c0.9-1.4,1.8-2.8,2.8-4.2c0.9-1.4,1.9-2.8,2.8-4.2
		c1-1.5,2-2.9,3.1-4.4c0.5-0.6,0.9-1.3,1.4-1.9c0.3-0.4,0.5-0.7,0.8-1.1c0.5-0.7,1-1.3,1.5-2c1.7-2.3,3.4-4.5,5.2-6.7
		c0.5-0.6,0.9-1.2,1.4-1.8c0.3-0.4,0.7-0.9,1.1-1.3c0.6-0.7,1.2-1.4,1.7-2.1c1.4-1.7,2.8-3.4,4.3-5c0,0,0,0,0,0
		c0.1-0.1,0.2-0.2,0.3-0.3c0.9-1,1.8-2.1,2.8-3.1c0.2-0.2,0.3-0.3,0.5-0.5c0.8-0.9,1.7-1.8,2.6-2.7c0.3-0.4,0.7-0.8,1.1-1.1
		c0.8-0.9,1.7-1.7,2.5-2.6c0.2-0.2,0.5-0.5,0.7-0.7c0.9-0.9,1.8-1.8,2.6-2.6c0.4-0.4,0.8-0.8,1.2-1.1c0.9-0.8,1.7-1.7,2.6-2.5
		c0.3-0.3,0.6-0.5,0.8-0.8c1-1,2.1-1.9,3.1-2.9c0.1-0.1,0.2-0.2,0.3-0.2c1.1-1,2.3-2.1,3.5-3.1c1.3-1.1,2.5-2.1,3.8-3.2
		c0.2-0.1,0.3-0.3,0.5-0.4c1-0.8,1.9-1.6,2.9-2.4c0.5-0.4,0.9-0.8,1.4-1.1c0.6-0.5,1.3-1,1.9-1.5c0.5-0.4,1-0.8,1.5-1.1
		c1-0.8,2-1.5,3-2.3c1.2-0.9,2.3-1.7,3.5-2.5c0.2-0.1,0.4-0.3,0.6-0.4c0.9-0.6,1.8-1.3,2.6-1.9c1.7-1.2,3.5-2.4,5.2-3.5
		c1-0.6,1.9-1.3,2.9-1.9c0.3-0.2,0.5-0.4,0.8-0.5c0.9-0.6,1.9-1.2,2.8-1.8c0.3-0.2,0.5-0.3,0.7-0.5c1.1-0.7,2.1-1.3,3.2-1.9
		c0.7-0.4,1.4-0.8,2.1-1.3c0.8-0.5,1.6-1,2.5-1.4c1-0.6,2-1.1,3.1-1.7c0.2-0.1,0.4-0.2,0.6-0.3c0.8-0.4,1.6-0.9,2.4-1.3
		c1.7-0.9,3.4-1.8,5.1-2.6c1.2-0.6,2.3-1.2,3.5-1.7c0.4-0.2,0.8-0.4,1.2-0.6c1-0.5,2.1-1,3.2-1.5c0.1,0,0.1-0.1,0.2-0.1
		c1.3-0.6,2.6-1.2,4-1.8c0,0,0,0,0,0c1.3-0.6,2.6-1.1,3.9-1.7c0.5-0.2,1-0.4,1.5-0.6c1.3-0.6,2.6-1.1,4-1.6c1.6-0.6,3.2-1.3,4.7-1.9
		c0,0,0,0,0,0c1.5-0.6,3-1.1,4.5-1.7c1.2-0.5,2.4-0.9,3.6-1.3c0.8-0.3,1.6-0.6,2.4-0.8c1.2-0.4,2.4-0.8,3.6-1.2
		c0.9-0.3,1.9-0.6,2.8-0.9c0.5-0.2,1.1-0.4,1.6-0.5c0.7-0.2,1.4-0.4,2-0.6c1-0.3,2-0.6,3-0.9c0.5-0.2,1-0.3,1.5-0.5c0,0,0,0,0,0
		c0.6-0.2,1.3-0.4,2-0.6c0.1,0,0.1,0,0.2,0c1-0.3,2-0.6,3-0.9c1.1-0.3,2.1-0.6,3.2-0.9c5.6-1.5,11.4-2.9,17.3-4.1
		c0.8-0.2,1.7-0.4,2.6-0.5c3.4-0.7,6.8-1.4,10.3-2c1-0.2,2-0.4,3-0.5c0.9-0.2,1.7-0.3,2.6-0.4c0.9-0.2,1.8-0.3,2.7-0.4
		c0.8-0.1,1.6-0.3,2.3-0.4c2.4-0.4,4.8-0.7,7.2-1h0c0,0,0,0,0.1,0s0,0,0,0c2.4-0.3,4.9-0.6,7.4-0.9c1.2-0.1,2.5-0.3,3.7-0.4
		c1-0.1,2.1-0.2,3.2-0.3c2.6-0.3,5.3-0.5,8-0.8c0.8-0.1,1.7-0.1,2.5-0.2c0.5,0,1.1-0.1,1.6-0.1c1.1-0.1,2.2-0.2,3.3-0.3
		c1.6-0.1,3.1-0.2,4.7-0.3c0.8-0.1,1.7-0.1,2.5-0.2c1.3-0.1,2.6-0.1,3.8-0.2c1.6-0.1,3.2-0.2,4.8-0.2c1.6-0.1,3.1-0.1,4.7-0.2
		c2.9-0.1,5.8-0.2,8.7-0.2c1.2,0,2.5,0,3.7-0.1h0c9.9-0.1,20.1,0,30.6,0.4c13.1,0.5,26.8,1.3,40.9,2.6c11.3,1,23,2.3,35,3.8
		c6,0.8,12,1.6,17.8,2.4c1,0.2,2,0.3,3,0.4c3.6,0.5,7.2,1.1,10.7,1.6c1,0.2,2,0.3,3,0.5c0.8,0.1,1.7,0.3,2.5,0.4
		c2,0.3,3.9,0.6,5.8,1c4.4,0.8,8.8,1.5,13.2,2.3c1.4,0.3,2.9,0.5,4.3,0.8c7.5,1.4,14.8,2.9,22,4.5c0.7,0.2,1.4,0.3,2.1,0.5
		c0.4,0.1,0.9,0.2,1.3,0.3c1.8,0.4,3.6,0.8,5.5,1.3c1.6,0.4,3.1,0.7,4.7,1.1c5.3,1.3,10.4,2.6,15.5,3.9h0c0.3,0.1,0.5,0.1,0.8,0.2
		C713.8,274.6,714.9,274.9,715.9,275.2z"/>
	<g>
		<g>
			<circle class="st6" cx="396.8" cy="439.4" r="125.7"/>
			<path d="M396.8,316.1c68.1,0,123.2,55.2,123.2,123.2s-55.2,123.2-123.2,123.2s-123.2-55.2-123.2-123.2S328.8,316.1,396.8,316.1
				 M396.8,311.1c-34.3,0-66.5,13.3-90.7,37.6s-37.6,56.4-37.6,90.7s13.3,66.5,37.6,90.7c24.2,24.2,56.4,37.6,90.7,37.6
				s66.5-13.3,90.7-37.6c24.2-24.2,37.6-56.4,37.6-90.7s-13.3-66.5-37.6-90.7S431.1,311.1,396.8,311.1L396.8,311.1z"/>
		</g>
		<g>
			<path class="st7" d="M456.2,331.3c-34-2-118.9,2.5-146.2,93.2c-12.3,40.7-11.1,72.9-4.5,97.5c-19.8-21.9-31.9-50.9-31.9-82.7
				c0-68.1,55.2-123.2,123.2-123.2C418.4,316.1,438.6,321.6,456.2,331.3z"/>
		</g>
		<circle class="st8" cx="460.9" cy="464" r="39.4"/>
		
			<ellipse transform="matrix(0.2947 -0.9556 0.9556 0.2947 -128.6225 738.2678)" class="st6" cx="435.8" cy="456.3" rx="16.4" ry="6.6"/>
	</g>
	<g>
		<g>
			<circle class="st6" cx="771.5" cy="479" r="120.1"/>
			<path d="M771.5,361.4c65,0,117.6,52.7,117.6,117.6s-52.7,117.6-117.6,117.6S653.9,544,653.9,479S706.6,361.4,771.5,361.4
				 M771.5,356.4c-32.8,0-63.5,12.8-86.7,35.9s-35.9,54-35.9,86.7s12.8,63.5,35.9,86.7s54,35.9,86.7,35.9s63.5-12.8,86.7-35.9
				s35.9-54,35.9-86.7s-12.8-63.5-35.9-86.7S804.3,356.4,771.5,356.4L771.5,356.4z"/>
		</g>
		<g>
			<path class="st7" d="M828,375.8c-31.9-5.4-109.2-8.7-135.6,79.2c-13.1,43.5-11.6,79-4.9,106.3c-20.7-21.2-33.5-50.3-33.5-82.3
				c0-65,52.7-117.6,117.6-117.6C792,361.4,811.3,366.6,828,375.8z"/>
		</g>
		<circle class="st8" cx="835.4" cy="499.2" r="40.3"/>
		
			<ellipse transform="matrix(0.3167 -0.9485 0.9485 0.3167 87.9867 1103.4292)" class="st6" cx="809.9" cy="490.6" rx="16.8" ry="6.7"/>
	</g>
	<g>
		<path class="st6" d="M561.7,706.5c-1.4,0-2.9-0.1-4.5-0.3c-8.9-1.2-15.9-5.4-20.8-12.5c-14.7-21.4-5.2-61.9-4.8-63.6l0.5-2.2
			l65.9,8.7l0.1,2.1c0,1.7,0.9,41.6-16.5,59.4C576.1,703.7,569.4,706.5,561.7,706.5z"/>
		<path d="M534,630.7l61.5,8.1c0,0,1.7,65.2-33.9,65.2c-1.3,0-2.7-0.1-4.1-0.3C517.8,698.5,534,630.7,534,630.7 M530.2,625.2
			l-1.1,4.4c-0.4,1.8-10.2,43.3,5.2,65.6c5.3,7.7,12.9,12.3,22.6,13.6c1.6,0.2,3.2,0.3,4.8,0.3c8.4,0,15.7-3.1,21.7-9.2
			c18.1-18.5,17.2-59.4,17.2-61.2l-0.1-4.3l-4.2-0.6l-61.5-8.1L530.2,625.2L530.2,625.2z"/>
	</g>
	<g>
		<path class="st0" d="M577.7,698.3c-5.1,4.3-11.7,6.6-20.1,5.5c-33.4-4.4-27.3-53-24.5-68.4l16.5,5.6c0,0-7.2,22.5-2.7,34.7
			C551.4,687.8,557.3,696.1,577.7,698.3z"/>
	</g>
	<path class="st9" d="M566.4,636.8c0,0-0.2,29.4-9.1,68.8"/>
	<g>
		<path class="st10" d="M627.1,662.9c-3.9,0-7.9-0.7-11.8-2c-18.5-6.4-35.5-10.6-50.4-12.6c-8.7-1.1-18.3-1.7-28.5-1.7
			c-7.1,0-14.6,0.3-22.3,0.8c-0.9,0.1-1.9,0.1-2.8,0.1c-18.2,0-29.8-12.9-33.4-25.7c-4.2-15.2,1.8-30.2,15.4-38.4
			c22.9-13.7,45.9-20.7,68.4-20.7c4.8,0,9.5,0.3,14.3,0.9c27,3.6,52.4,17.1,75.5,40.4c10.1,10.1,12.8,23.9,7.4,36.9
			C653.4,654.3,640.9,662.9,627.1,662.9C627.1,662.9,627.1,662.9,627.1,662.9z"/>
		<path d="M561.8,565.3c4.6,0,9.2,0.3,13.9,0.9c29.8,3.9,54.4,20,74.1,39.7c21.1,21.2,3.7,54.5-22.6,54.5c-3.5,0-7.2-0.6-11-1.9
			c-16.8-5.8-34.3-10.5-50.9-12.7c-9.3-1.2-19-1.8-28.8-1.8c-7.5,0-15,0.3-22.5,0.8c-0.9,0.1-1.8,0.1-2.6,0.1
			c-31.8,0-44.9-42.5-16.7-59.4C514.5,573.7,537.2,565.3,561.8,565.3 M561.8,560.3c-23,0-46.4,7.1-69.7,21
			c-14.5,8.7-21,24.9-16.5,41.2c4.6,16.5,18.9,27.5,35.8,27.5c1,0,2,0,3-0.1c7.7-0.5,15.1-0.8,22.1-0.8c10.1,0,19.5,0.6,28.2,1.7
			c14.8,1.9,31.6,6.1,50,12.4c4.2,1.4,8.4,2.2,12.6,2.2c14.8,0,28.2-9.2,34.2-23.4c5.8-14,2.8-28.8-8-39.6
			c-23.5-23.7-49.4-37.5-76.9-41.1C571.5,560.6,566.6,560.3,561.8,560.3L561.8,560.3z"/>
	</g>
	<path class="st11" d="M601.8,654c-12.3-3.6-24.7-6.5-36.6-8.1c-16.4-2.2-34.1-2.1-51.3-0.9c-33.6,2.4-48.2-42-19.3-59.3
		c18-10.8,38.3-18.7,60.2-20.1l6.2,28.2c0,0-25.8,0.3-34,6.6c-8.2,6.3-13.7,20.3,15.2,24.1C571.2,628.2,589.7,640.9,601.8,654z"/>
	
		<ellipse transform="matrix(0.1305 -0.9914 0.9914 0.1305 -61.4867 1066.4296)" class="st3" cx="577.2" cy="568.3" rx="34.7" ry="67.5"/>
	<path class="st8" d="M606.5,602.5c-10.1,1.6-21.7,1.7-33.8,0.1c-37-4.9-64.9-24.2-62.4-43.2c1.4-10.9,12.6-19.4,28.9-23.6
		c-3.4,8.6-4.4,19.2,2.8,30.6C550.7,580.2,577.6,593.2,606.5,602.5z"/>
	<g>
		<path class="st3" d="M689.4,1080l-0.1-0.1c-0.8-0.8-1.7-1.6-2.6-2.4c-12.3-11.4-25.6-21.9-39.4-31.4h0l0,0h0l-0.1-0.1
			c-43.1-29.2-91.3-47.6-143.2-54.6c-15-2-30.2-3-45.2-3c-37,0-73.5,6.1-108.5,18.1l-0.1,0h0c-5.9,2-11.9,4.3-17.9,6.7
			c-10.9,4.5-21.7,9.6-32.2,15.2l-0.1,0c0,0,0,0,0.1-0.1c-0.1,0.1-0.2,0.1-0.3,0.2c-25.8,13.9-49.6,31.1-70.9,51.2l-0.1,0.1h-66.9
			l0.7-0.8c18.1-21.9,38.8-41.9,61.3-59.4c8.9-6.9,18.2-13.5,27.7-19.5c-14.2-16.2-28.3-37.1-40.9-60.4c-1.7-3.1-3.4-6.4-5.3-10.1
			c-4.1-8.1-7.8-16.2-11.1-24.1c-0.2-0.6-0.5-1.2-0.7-1.8c-3.5-8.4-6.4-16.6-8.8-24.3l0-0.1c-1.1-3.4-2-6.6-2.8-9.7l-0.1-0.1
			l0.1-0.2c-1.4-5.3-2.5-10.3-3.2-15c-3.4-20.3-0.9-33.8,7-38c1.8-1,3.8-1.5,6.1-1.5c8.4,0,19.5,6.6,32.4,19.2
			c13.4,13,27.3,31.3,40.5,52.9c3.5,5.8,7,11.9,10.4,18.1c12.6,23.3,22.2,46.6,28,67.4c14.1-6.3,28.7-11.8,43.4-16.3
			c36.4-11.2,74.2-16.9,112.4-16.9l1.2,0c7.1,0,14.3,0.3,21.5,0.7c-2-21.4-1.1-46.6,2.4-72.9c2.5-18.7,6.2-36.4,10.9-52.7V814l0.1,0
			c8.7-29.7,20-51.1,31-58.6l0.2-0.1c0,0,0,0,0,0c2.8-1.9,5.7-2.8,8.4-2.8c0.5,0,1,0,1.5,0.1c13.1,1.8,21.8,25.5,23.3,63.5
			c0.7,18.6-0.4,39.6-3.2,60.8c-3.5,26.3-9.4,50.8-17,71c48.6,10.3,94,29.6,135,57.3l0.1,0.1c4.8,3.2,9.7,6.7,14.6,10.4
			c4.6,3.4,9.3,7.1,13.8,10.8c11.1-18.6,26.6-38.4,44.8-57.5c5.7-6,11.6-11.8,17.5-17.2c7.8-7.2,15.7-13.9,23.3-19.8
			c12-9.2,23.2-16.4,33.3-21.4c9.9-4.8,18.2-7.3,24.7-7.3c4.6,0,8.2,1.2,10.7,3.7c6.6,6.3,5.3,20.3-3.7,39.5
			c-3.9,8.3-9.2,17.4-15.6,26.9l-0.6,0.9c-4.3,6.3-9.1,12.8-14.4,19.4c-6.9,8.7-14.5,17.3-22.5,25.7c-18.3,19.2-37.5,35.6-55.4,47.4
			c3.6,4.1,7.3,8.2,10.7,12.4l0.7,0.8H689.4z"/>
		<path d="M534.5,753c0.5,0,1,0,1.5,0.1c13.1,1.8,21.4,27,22.9,63.1c0.7,18-0.3,38.8-3.2,60.7c-3.7,27.2-9.8,52-17.1,71.4
			c49.7,10.5,95.5,30.3,135.5,57.5h0c5,3.3,9.8,6.8,14.6,10.4c4.8,3.6,9.6,7.3,14.2,11.2c10.6-17.8,26.1-38.1,45.1-57.9
			c5.8-6.1,11.6-11.8,17.4-17.2c7.9-7.3,15.7-13.9,23.3-19.8c11.9-9.2,23.3-16.4,33.3-21.3c9.6-4.7,18-7.2,24.5-7.2
			c4.4,0,7.9,1.1,10.4,3.5c6.7,6.4,4.8,20.7-3.8,38.9c-3.9,8.3-9.1,17.3-15.6,26.8c-0.2,0.3-0.4,0.6-0.6,0.9
			c-4.3,6.3-9.1,12.8-14.3,19.4c-6.8,8.5-14.3,17.1-22.5,25.6c-19,19.9-38.5,36.3-55.8,47.7c3.8,4.2,7.5,8.5,11.1,12.9h-65.6
			c-0.8-0.8-1.7-1.6-2.6-2.4c-12.3-11.4-25.6-22-39.6-31.5c0,0,0,0,0,0c0,0,0,0,0,0c-41.6-28.2-90.3-47.5-143.5-54.7
			c-15.2-2-30.3-3-45.3-3c-37.7,0-74.3,6.4-108.6,18.2h0c0,0,0,0-0.1,0h0c-6.1,2.1-12.1,4.4-18,6.8c-11,4.5-21.8,9.6-32.2,15.3
			c0,0-0.1,0-0.1,0.1c-0.1,0.1-0.2,0.1-0.2,0.1c-25.8,13.9-49.6,31.2-70.9,51.2h-65.6c18.2-22,38.8-41.9,61.3-59.3
			c9.1-7,18.4-13.6,28.1-19.8c-13.7-15.6-28.2-36.5-41.2-60.8c-1.8-3.4-3.6-6.8-5.3-10.1c-4.1-8.2-7.8-16.3-11.1-24.1
			c-0.3-0.6-0.5-1.2-0.8-1.8c-3.5-8.4-6.4-16.5-8.8-24.2v0c-1.1-3.4-2-6.7-2.8-9.9c0,0,0,0,0,0c0,0,0,0,0,0
			c-1.4-5.3-2.5-10.3-3.3-15v0c-3.2-19.3-1.3-33.2,6.8-37.5c1.7-0.9,3.7-1.4,5.8-1.4c8.4,0,19.6,6.9,32,19.1
			c12.9,12.6,27.1,30.9,40.4,52.8c3.5,5.8,7,11.8,10.3,18.1c13.1,24.2,22.6,47.8,28.1,67.8c14.2-6.4,28.9-11.9,43.9-16.5
			c35.7-11,73.5-16.9,112.3-16.9c0.4,0,0.8,0,1.2,0c7.3,0,14.7,0.3,22,0.7c-1.9-20.7-1.3-46.2,2.4-73.4c2.6-19.1,6.4-37,10.9-52.7
			c0,0,0,0,0,0c8.5-29.4,19.8-51.1,30.9-58.6c0,0,0,0,0.1,0c0,0,0.1,0,0.1-0.1c0,0,0,0,0,0C529.1,753.9,531.8,753,534.5,753
			 M534.5,752c-2.8,0-5.6,0.9-8.5,2.8h0l-0.2,0.2l0,0l-0.1,0v0c0,0,0,0,0,0l0,0l-0.1,0c-11.1,7.5-22.4,28.8-31.1,58.5h-0.3l0,0.9
			c-4.7,16.2-8.4,34-10.9,52.7c-3.5,26.1-4.4,51.2-2.5,72.5c-7-0.4-14.1-0.6-20.9-0.6l-1.2,0c-38.2,0-76.1,5.7-112.5,16.9
			c-14.5,4.5-29,9.9-43,16.1c-5.8-20.7-15.4-43.8-27.9-66.9c-3.4-6.2-6.9-12.3-10.4-18.1c-13.1-21.6-27.2-40-40.5-53
			c-12.9-12.6-24.2-19.3-32.7-19.3c-2.3,0-4.5,0.5-6.3,1.5c-8.1,4.4-10.7,18-7.3,38.5l0,0.1c0.8,4.6,1.8,9.6,3.2,14.8l-0.1,0.3
			l0.3,0.3c0.8,3,1.7,6.2,2.7,9.5l0,0.2c2.4,7.7,5.4,15.9,8.8,24.3c0.3,0.6,0.5,1.2,0.8,1.8c3.3,7.9,7,16,11.1,24.1
			c1.9,3.7,3.6,7,5.3,10.1c12.5,23.2,26.5,43.9,40.6,60.1c-9.3,6-18.4,12.5-27.2,19.3c-22.6,17.5-43.3,37.5-61.4,59.5l-1.4,1.6h2.1
			h65.6h0.4l0.3-0.3c21.2-20,45-37.2,70.7-51.1l0.1,0l0,0c0.1,0,0.1-0.1,0.2-0.1c0,0,0.1,0,0.1,0l0,0c10.4-5.6,21.2-10.7,32.1-15.2
			c5.9-2.4,11.9-4.7,17.8-6.7h0.1l0.1,0l0.1,0c34.9-12,71.3-18.1,108.3-18.1c15,0,30.2,1,45.1,3c51.9,7,100,25.3,143,54.5l0.2,0.2h0
			l0,0l0.1,0c13.8,9.4,27,19.9,39.2,31.2c0.9,0.8,1.7,1.6,2.6,2.4l0.3,0.3h0.4h65.6h2.1l-1.3-1.6c-3.3-4.1-6.8-8.1-10.3-12
			c17.8-11.8,36.8-28.1,55-47.2c8-8.4,15.6-17,22.5-25.7c5.3-6.6,10.1-13.1,14.4-19.4c0.2-0.3,0.4-0.6,0.6-0.9
			c6.5-9.6,11.7-18.6,15.6-26.9c9.1-19.4,10.4-33.6,3.6-40.1c-2.6-2.5-6.4-3.8-11.1-3.8c-6.6,0-15,2.5-25,7.3
			c-10.2,5-21.4,12.2-33.4,21.4c-7.7,5.9-15.5,12.6-23.4,19.8c-5.9,5.4-11.7,11.2-17.5,17.2c-18.1,18.9-33.5,38.7-44.6,57.1
			c-4.4-3.6-8.9-7.1-13.4-10.4c-4.9-3.7-9.8-7.2-14.6-10.4l-0.3-0.2h0c-40.8-27.6-86.1-46.9-134.5-57.2
			c7.5-20.1,13.3-44.4,16.8-70.5c2.9-21.2,4-42.2,3.2-60.8c-1.5-38.3-10.4-62.2-23.7-64C535.6,752,535,752,534.5,752L534.5,752z"/>
	</g>
	<g>
		<path class="st10" d="M200.4,932.5c-10.1,0-18.5-4.9-24.9-14.5c-6.5-9.8-8.2-20.3-5.1-31.2c10.8-37.7,76-67.7,78.7-68.9l1.9-0.9
			l34,48.5l-1,1.4C282,869.6,236.3,932.5,200.4,932.5C200.4,932.5,200.4,932.5,200.4,932.5z"/>
		<path d="M250.2,820.1l31.7,45.4c0,0-46.5,64.5-81.5,64.5c-8.6,0-16.5-3.9-22.8-13.4C145.2,867.7,250.2,820.1,250.2,820.1
			 M251.9,813.8l-3.8,1.7c-2.8,1.3-69,31.7-80.1,70.5c-3.3,11.6-1.5,22.8,5.4,33.3c6.9,10.4,16,15.7,27,15.7
			c15.9,0,35.3-11.4,57.5-33.7c16.1-16.2,27.6-32.2,28.1-32.9l2.1-2.9l-2-2.9l-31.7-45.4L251.9,813.8L251.9,813.8z"/>
	</g>
	<g>
		<path class="st10" d="M824.9,995.9c-41.3,0-81-70.7-82.7-73.7l-1-1.8l45.6-37.8l1.5,0.9c2.9,1.7,69.9,42.6,72.1,78.5
			c0.6,9.8-3.6,18.4-12.5,25.4C840.8,993.1,833.1,995.9,824.9,995.9z"/>
		<path d="M787,885.7c0,0,105.4,63.6,59.4,99.8c-7,5.5-14.3,7.9-21.5,7.9c-40.3,0-80.5-72.4-80.5-72.4L787,885.7 M786.6,879.6
			l-2.7,2.3l-42.7,35.3l-3.2,2.6l2,3.6c1.7,3.1,42.2,75,84.9,75c8.8,0,17.1-3,24.6-8.9c9.6-7.6,14.1-16.8,13.5-27.5
			c-1-16-13.8-34.4-38.1-54.9c-17.6-14.8-34.6-25.2-35.3-25.6L786.6,879.6L786.6,879.6z"/>
	</g>
	<path class="st12" d="M857.1,970.8c-1.5,5.3-4.9,10.2-10.7,14.8c-3.3,2.6-6.7,4.5-10.1,5.8c4.4-3.4,7.8-8.2,5.1-14.2
		C847.7,978.3,853.1,974.7,857.1,970.8z"/>
	<path class="st12" d="M798.2,893.1c-4.2,8.2-8.5,19.2-9.1,29.9c-8.7,8.5-22.1,13.2-33.6,15.8c-7-10.2-11.2-17.8-11.2-17.8
		l42.7-35.3C787,885.7,791.5,888.4,798.2,893.1z"/>
	<path class="st13" d="M791.3,875.2c0,0-9.6,24.5-11.3,35.4c-13.4-0.7-15.1-5.1-15.1-5.1s-0.7,10.9,6.2,17.8
		c-10.9,4.4-27.1,1-36.4-1.3"/>
	<path class="st13" d="M247.7,807.1c0,0-1,25.3,3.5,35.9c4.1-6.2,6.7-8.7,6.7-8.7s-0.7,16.9-2.1,24.3c10.3,6.2,36.2,12.1,36.2,12.1"
		/>
	<path class="st12" d="M202.8,929.8c-9.5,0.8-18.3-2.9-25.2-13.3c-16.4-24.7,2.4-49.1,25-67.2c-8.8,13.3-19.5,30.9-19.9,38
		c-0.9,17.1,10.1,19.5,10.1,19.5S185.9,922.3,202.8,929.8z"/>
	<path class="st14" d="M175.7,915.6c0,0,18.6-6.8,26.8-17.7"/>
	<path class="st14" d="M851.9,982.8c0,0-12.8-5.5-23.4-15.7"/>
	<g>
		<path class="st6" d="M589.7,266.2L348,222.5l0-2c0-0.3-0.7-32.1-6-52.5c-5.3-20.3-24.3-48-24.5-48.2l-2.1-3l3.5-0.9
			c0.7-0.2,75-18,191-18c37.7,0,76,1.9,114,5.6c96.3,9.4,169.1,31.3,213.1,48.1c47.9,18.2,73.3,34.4,73.6,34.6l2.8,1.8l-2.5,2.2
			c-0.2,0.2-19,16.6-28.3,39c-9.5,22.7-14.7,58.2-14.8,58.5l-0.3,2.3L589.7,266.2z"/>
		<path d="M509.9,100.4c34.4,0,72.6,1.6,113.7,5.6c185.9,18.1,285.6,82.3,285.6,82.3s-19.3,16.7-29,39.9
			c-9.7,23.2-14.9,59.1-14.9,59.1L590,263.7l-239.6-43.3c0,0-0.6-32.1-6.1-53.1c-5.4-21-24.9-49-24.9-49S392.9,100.4,509.9,100.4
			 M509.9,95.4v5V95.4c-116.2,0-190.8,17.9-191.5,18.1l-7.1,1.7l4.1,6c0.2,0.3,19,27.6,24.1,47.4c5.2,20.1,5.9,51.6,5.9,51.9
			l0.1,4.1l4,0.7l239.6,43.3l0.2,0l0.2,0l275.2,23.6l4.7,0.4l0.7-4.7c0.1-0.4,5.2-35.5,14.6-57.9c9.2-21.9,27.5-37.9,27.7-38.1
			l5.1-4.4l-5.6-3.6c-1-0.7-25.9-16.5-74-34.8c-44.2-16.8-117.2-38.8-213.8-48.2C586,97.2,547.6,95.4,509.9,95.4L509.9,95.4z"/>
	</g>
	<g>
		<path d="M864.7,333.2c-1.8-0.4-183-35.5-306.7-51.6C434.4,265.5,345,263,344.1,263l-2.8-0.1l7-45.2l2.3,0.2
			c1.5,0.1,155.1,12,290.6,29.8c135.6,17.8,223.7,36.9,224.6,37l2,0.4l-0.1,48.5L864.7,333.2z"/>
		<path d="M350.4,220.4c0,0,153.4,11.8,290.5,29.8c137,18,224.4,37,224.4,37l-0.1,43.5c0,0-181.6-35.3-306.8-51.6
			c-125.2-16.3-214.1-18.6-214.1-18.6L350.4,220.4 M346.2,215.1l-0.7,4.6l-6.2,40.1l-0.9,5.6l5.7,0.1c0.9,0,90.1,2.5,213.6,18.6
			c123.6,16.1,304.7,51.2,306.5,51.6l5.9,1.2l0-6.1l0.1-43.5l0-4l-3.9-0.9c-0.9-0.2-89.1-19.2-224.8-37.1
			c-135.6-17.8-289.2-29.7-290.7-29.9L346.2,215.1L346.2,215.1z"/>
	</g>
	<g>
		<path class="st3" d="M678.4,353.4C678.4,353.4,678.4,353.4,678.4,353.4c-26.7,0-55.3-1.8-85.2-5.3
			c-100.7-11.8-158.9-38.8-190-59.3c-34-22.5-43.8-42.1-44.2-42.9l-1.9-3.9l4.4,0.3c1.5,0.1,149.1,11.7,246.6,24.6
			c97.5,12.9,243.8,40.4,245.3,40.6l5,0.9l-3.8,3.4c-0.5,0.4-12.1,10.6-39.7,20.9C789.5,342.2,745.3,353.4,678.4,353.4z"/>
		<path d="M361.3,244.8c0,0,147.9,11.5,246.5,24.6S852.9,310,852.9,310s-45.7,40.9-174.5,40.9c-25.1,0-53.3-1.5-84.9-5.2
			C399.5,322.9,361.3,244.8,361.3,244.8 M353,239.2l3.8,7.9c0.4,0.8,10.5,21,45.1,43.9c20,13.2,44.2,24.7,71.9,34.1
			c34.5,11.7,74.6,20.3,119.2,25.6c30,3.5,58.7,5.3,85.5,5.3c67.2,0,111.7-11.3,137.2-20.7c28.1-10.4,40-20.9,40.5-21.4l7.6-6.8
			l-10-1.9c-1.5-0.3-147.8-27.7-245.4-40.7c-97.6-12.9-245.2-24.5-246.7-24.6L353,239.2L353,239.2z"/>
	</g>
	<path class="st15" d="M909.2,188.2c0,0-4.6,4-10.5,10.8c-54.7-26.7-200.4-87.7-376.5-78.2c-84.3,4.6-142.7,23.3-179.7,40.5
		c-7-19.9-23-43.1-23-43.1s122.9-30,304.1-12.4C809.4,124,909.2,188.2,909.2,188.2z"/>
	<g>
		<path class="st16" d="M495.9,326.7c-110-31.6-134.6-81.9-134.6-81.9s38.3,3,89,7.6C449.8,263.4,452.3,296.6,495.9,326.7z"/>
	</g>
	<g>
		<circle cx="618.9" cy="176.8" r="54"/>
	</g>
	<g>
		<g>
			<path class="st6" d="M660.3,168.3c-0.3-1.4-4.4-1.8-9.1-0.8c-2,0.4-3.8,1-5.1,1.6c-1.3-4.4-3.6-8.4-6.6-11.6
				c1.3-0.9,2.7-2.1,4-3.6c3.3-3.6,5-7.3,4-8.3c-1.1-1-4.6,1.1-7.9,4.7c-1.4,1.5-2.5,3-3.2,4.3c-3.5-2.7-7.6-4.6-12.2-5.5
				c0.5-1.4,0.9-3.3,1.1-5.3c0.5-4.8-0.2-8.9-1.7-9c-1.4-0.2-3,3.6-3.6,8.5c-0.2,2-0.2,3.9,0,5.4c-4.6-0.2-9.1,0.8-13.1,2.7
				c-0.4-1.5-1.2-3.2-2.2-4.9c-2.4-4.2-5.4-7.1-6.7-6.3c-1.3,0.7-0.3,4.7,2.1,8.9c1,1.8,2.1,3.3,3.1,4.4c-3.7,2.5-6.8,5.9-9,9.9
				c-1.2-0.9-2.8-1.9-4.7-2.7c-4.4-2-8.5-2.5-9.1-1.2c-0.6,1.3,2.5,4,6.9,6c1.8,0.8,3.6,1.4,5.1,1.7c-0.8,2.1-1.3,4.3-1.5,6.6
				c-0.3,2.3-0.2,4.5,0.1,6.7c-1.5,0-3.4,0.1-5.4,0.6c-4.8,1-8.4,2.9-8.1,4.4c0.3,1.4,4.4,1.8,9.2,0.8c2-0.4,3.7-1,5.1-1.6
				c1.3,4.4,3.6,8.3,6.7,11.6c-1.3,0.9-2.7,2.1-4,3.6c-3.3,3.6-5,7.3-4,8.3s4.6-1.1,7.9-4.7c1.4-1.5,2.5-3,3.2-4.3
				c3.5,2.7,7.6,4.7,12.2,5.5c-0.5,1.4-0.9,3.3-1.1,5.3c-0.5,4.8,0.2,8.9,1.7,9c1.5,0.2,3.1-3.6,3.6-8.5c0.2-2,0.2-3.9,0-5.4
				c4.7,0.2,9.1-0.8,13.1-2.7c0.4,1.5,1.2,3.2,2.2,4.9c2.4,4.2,5.4,7,6.7,6.3c1.3-0.7,0.3-4.7-2.1-8.9c-1-1.8-2.1-3.3-3.1-4.4
				c3.7-2.5,6.8-5.9,9-9.9c1.2,0.9,2.8,1.9,4.7,2.7c4.4,2,8.5,2.5,9.1,1.2c0.6-1.3-2.5-4-6.9-6c-1.8-0.8-3.6-1.4-5.1-1.7
				c0.8-2.1,1.3-4.3,1.5-6.6c0.3-2.3,0.2-4.5-0.1-6.7c1.5,0,3.4-0.2,5.3-0.6C657,171.6,660.6,169.7,660.3,168.3z M643.4,179.5
				c-0.3,2.6-1,5.1-2,7.4c0,0,0,0.1,0,0.1c-1.1,2.4-2.5,4.5-4.3,6.4c-1.7,1.9-3.7,3.5-6,4.8c0,0,0,0,0,0h0
				c-4.4,2.5-9.5,3.7-14.9,3.1c-5.4-0.6-10.2-2.9-13.9-6.3c0,0,0,0,0,0c0,0,0,0,0,0c-3.8-3.4-6.5-8-7.5-13.1c0,0,0-0.1,0-0.1
				c-0.5-2.4-0.6-5-0.3-7.6c0.3-2.6,1-5.1,2-7.4c0,0,0-0.1,0.1-0.1c1.1-2.4,2.5-4.5,4.2-6.4s3.7-3.5,6-4.8c0,0,0,0,0,0h0
				c4.4-2.5,9.5-3.7,14.9-3.1c5.4,0.6,10.2,2.9,13.9,6.3c0,0,0,0,0,0c0,0,0,0,0,0c3.8,3.4,6.4,8,7.5,13.1c0,0,0,0.1,0,0.1
				C643.6,174.3,643.7,176.9,643.4,179.5z"/>
		</g>
	</g>
</g>
</svg>
